<svg xmlns="http://www.w3.org/2000/svg" viewBox="0 0 135.47 135.47"><defs/><path fill="#fbf0d2" d="M47.46 117.67c-5.77-.96-8.38-2.69-10.64-7.05-2.21-4.28-1.7-7.96 1.7-12.07 4-4.86 7.66-6.68 15.76-7.8 11.24-1.57 18.18-4.4 23.09-9.4 4.36-4.44 4.37-4.47 1.7-4.47-1.54 0-4.63 1.47-7.16 3.4-5.25 4.01-8.3 5.07-19.01 6.63-9.52 1.38-11.97 2.53-16.77 7.85-4.97 5.5-5.76 9.59-3.16 16.3.4 1.04.21 1.75-.45 1.75-.62 0-1.4-1.34-1.73-2.99-.73-3.66-1.66-3.8-2.9-.48l-.94 2.52-6-2.88a53.4 53.4 0 01-10.4-6.82l-4.4-3.95 1.17-12.4c.64-6.84 2.06-15.79 3.14-19.9l2-7.59c0-.05-1.8-.92-4.02-1.92-2.67-1.2-3.85-2.3-3.5-3.22.3-.78.55-1.82.55-2.31 0-.5 1.97.2 4.38 1.55 4.34 2.42 4.39 2.43 4.92.4.43-1.64-.47-2.68-4.38-5.12-2.71-1.68-4.92-3.45-4.92-3.94 0-2.08 3.12-1.76 7.1.75l4.28 2.7 1.54-2.34c4.06-6.16 10.41-14.03 12.04-14.9 1.09-.59 2.08-2.66 2.49-5.22.38-2.35 1.29-5.21 2.02-6.37 1.3-2.05 1.56-2.08 9-.78 5.81 1 8.86 1.07 12.71.24 2.83-.6 9.72-.87 15.62-.6 8.38.39 11.98 1.05 17.54 3.24a63.14 63.14 0 0013.97 3.46c10.86 1.08 10.69.92 11.97 11.52.34 2.75 1.9 7.46 3.48 10.48 6.11 11.72 10.98 31.7 11 45.1 0 5.66-.03 5.71-5.54 10.49-10.24 8.86-20.16 13.07-37.38 15.88-9.35 1.53-31.37 1.67-39.87.26zm-9.18-27.14c1.73-2.08-.23-7.14-4.73-12.26-2.2-2.5-4.8-6.64-5.75-9.2-1.8-4.79-2.9-6.12-5.12-6.15-3.12-.03 2.1 11.9 8.12 18.6 3 3.34 4.63 6.05 4.63 7.74 0 2.83 1.13 3.34 2.85 1.27zm46.06-19.14c0-1.6-.92-1.85-3.42-.89-2.43.93-1.87 2.39.92 2.39 1.55 0 2.5-.57 2.5-1.5zm1.4-11.97c-.16-10.58-6.66-19.9-17.27-24.77-6.96-3.2-22.8-3.1-29.05.17-5.71 3-11.6 8.58-14.06 13.33-1.86 3.6-1.86 3.73-.06 4.7 1.5.8 2.07.55 2.92-1.34 1.94-4.24 7.46-9.65 12.6-12.35 6.79-3.55 18.6-3.8 25.7-.54 9.48 4.35 16.62 15.29 15.62 23.9-.36 3.04-.15 3.43 1.64 3.18 1.82-.26 2.04-.97 1.96-6.28zm-59.3-.47c0-.53-.9-1.44-1.99-2.03-1.57-.84-2-.76-2 .38 0 1.32 1.3 2.33 3.25 2.54.41.04.75-.36.75-.89z"/><path fill="#e8e6e7" d="M47.46 117.67c-5.77-.96-8.38-2.69-10.64-7.05-2.21-4.28-1.7-7.96 1.7-12.07 4-4.86 7.66-6.68 15.76-7.8 11.24-1.57 18.18-4.4 23.09-9.4l4.39-4.47h-2.77c-1.53 0-4.2 1.07-5.95 2.38-5.63 4.22-9.74 5.77-19.03 7.18-5 .76-9.45 1.4-9.87 1.4-1.47.04-9.87 8.41-11.4 11.36-1.48 2.87-1.4 7.91.2 11.87.43 1.05.26 1.74-.42 1.74-.62 0-1.4-1.34-1.73-2.99-.73-3.66-1.66-3.8-2.9-.48l-.94 2.52-6-2.88a53.4 53.4 0 01-10.4-6.82l-4.4-3.95 1.17-12.4c.64-6.84 2.06-15.79 3.14-19.9l2-7.59c0-.05-1.8-.92-4.02-1.92-2.67-1.2-3.85-2.3-3.5-3.22.3-.78.55-1.82.55-2.31 0-.5 1.97.2 4.38 1.55 4.34 2.42 4.39 2.43 4.92.4.43-1.64-.47-2.68-4.38-5.12-2.71-1.68-4.92-3.45-4.92-3.94 0-2.05 3.09-1.78 6.87.61 2.24 1.41 4.24 2.57 4.44 2.57.21 0 2.03-2.48 4.05-5.52a74.3 74.3 0 017.62-9.48c2.78-2.78 4.27-5.35 5-8.66 1.6-7.07 1.82-7.2 10.55-5.67 5.76 1 8.81 1.05 12.65.23 2.83-.6 9.72-.87 15.62-.6 8.38.39 11.98 1.05 17.54 3.24a63.14 63.14 0 0013.97 3.46c10.86 1.08 10.69.92 11.97 11.52.34 2.75 1.9 7.46 3.48 10.48 6.11 11.72 10.98 31.7 11 45.1 0 5.66-.03 5.71-5.54 10.49-10.24 8.86-20.16 13.07-37.38 15.88-9.35 1.53-31.37 1.67-39.87.26zM38.4 90.4c2.03-2.45.14-7.39-5-13.07-2.8-3.1-5.3-7-5.9-9.28-.97-3.57-2.54-5.14-5.14-5.14-.52 0-.63 1.22-.26 2.74 1.42 5.77 4.25 10.92 8.71 15.87 3 3.34 4.63 6.05 4.63 7.74 0 2.9 1.14 3.33 2.96 1.14zm45.95-19c0-1.62-.92-1.86-3.42-.9-2.43.93-1.87 2.39.92 2.39 1.55 0 2.5-.57 2.5-1.5zm1.4-11.98c-.16-10.58-6.66-19.9-17.27-24.77-6.96-3.2-22.8-3.1-29.05.17-5.71 3-11.6 8.58-14.06 13.33-1.87 3.62-1.87 3.73-.04 4.7 1.6.86 2.32.28 4.94-3.94A27.7 27.7 0 0138 41c18.52-11.75 43.66.17 43.67 20.7 0 3.77.25 4.25 2.08 4 1.86-.27 2.07-.95 1.99-6.3zm-59.3-.47c0-.53-.9-1.44-1.99-2.03-1.57-.84-2-.76-2 .38 0 1.32 1.3 2.33 3.25 2.54.41.04.75-.36.75-.89z"/><path fill="#e5d9d7" d="M49.92 117.74c-8.47-1.42-9.37-1.84-11.97-5.67-3.38-4.97-3.22-8.37.59-12.71 5.17-5.9 8.17-7.47 16.12-8.48 10.19-1.29 17.37-4.21 22.69-9.23l4.5-4.24-2.74-.33c-1.76-.21-3.9.57-6.04 2.2-4.92 3.76-11.45 6.29-18.18 7.04-10.79 1.22-12.94 2.18-18.5 8.25l-5.19 5.68.58 6.53c.36 4.17.25 5.81-.32 4.54-.48-1.1-.91-3.04-.95-4.3-.09-2.78-2.07-1.92-2.07.9 0 4.54-5.87 3.08-15.24-3.79-2.61-1.92-5.22-4.36-5.8-5.44-1.37-2.56.56-22.43 3.16-32.61 1.05-4.12 1.8-7.59 1.66-7.7-.13-.11-1.7-.95-3.49-1.86-2-1.02-3.24-2.4-3.24-3.62 0-2.43.17-2.43 4.93 0 3.6 1.84 3.9 1.85 4.53.25.47-1.2-.16-2.32-2.06-3.72-6.86-5-8-6.3-6.22-6.99 1.02-.4 3.15.35 5.47 1.92 2.08 1.42 4.12 2.58 4.53 2.58.4 0 2.26-2.36 4.13-5.24a62.1 62.1 0 017.48-9.14c2.32-2.23 4.33-5.23 4.67-6.99.34-1.7 1.1-4.37 1.7-5.93 1.08-2.8 1.23-2.84 6.18-2.05 2.8.44 6.99.72 9.32.62 2.33-.1 10.42-.3 17.97-.42 12.92-.22 14.15-.07 21.2 2.59a77.94 77.94 0 0014.96 3.73c4.1.5 7.97 1.46 8.58 2.14.6.67 1.65 4.31 2.3 8.08.67 3.77 2.7 9.83 4.54 13.48 4.4 8.73 7.34 18.46 9.1 30.07 2.45 16.2 2.28 17.28-3.8 23.12-12.05 11.6-33.5 17.97-59.45 17.69-5.86-.07-12.9-.5-15.63-.95zm-11-31.86c-.38-1.77-2.88-5.62-5.54-8.55-2.76-3.05-5.28-7.01-5.88-9.22-.7-2.57-1.88-4.26-3.54-5.02-2.04-.93-2.5-.87-2.5.3 0 3.78 4.53 12.8 9 17.91 3.72 4.25 4.97 6.48 4.97 8.84v3.16l2.1-2.1c1.66-1.67 1.95-2.78 1.4-5.32zm45.8-14.55c.47-1.22.01-1.5-2.06-1.25-1.46.17-2.85.88-3.07 1.56-.61 1.87 4.41 1.56 5.13-.31zm1.04-12.52c-.08-7.68-2.77-13.24-9.22-19.07-8.39-7.58-23.91-10.07-35.55-5.71-6 2.24-13.28 8.57-16.07 13.96-1.63 3.15-1.62 3.36.16 4.67 1.62 1.19 2 1.15 2.86-.32 3.62-6.14 7.66-10.17 12.9-12.85 4.89-2.5 6.96-2.97 12.93-2.94 16 .1 27.9 10.82 27.9 25.16 0 3.77.25 4.25 2.08 4 1.88-.28 2.08-.95 2.01-6.9zm-59.31.23c0-1.54-2.87-3.32-4.1-2.55-.86.53-.68 1.11.64 2.08 2.12 1.55 3.46 1.73 3.46.47z"/><path fill="#f6e0a2" d="M49.9 117.7c-7.43-1.06-10-2.39-12.5-6.44-2.79-4.5-2.47-7.79 1.14-11.9 5.17-5.9 8.17-7.47 16.12-8.48 10.26-1.3 17.59-4.27 22.79-9.24l4.4-4.2-2.74-.34c-1.74-.22-3.9.53-5.98 2.1-5.77 4.31-9.82 5.82-19.5 7.28-10.92 1.64-10.9 1.63-16.78 7.34-5.06 4.9-5.93 7.26-5.04 13.75.74 5.37-.36 5-1.4-.48l-.71-3.76-.77 3.33c-.42 1.83-1.46 3.6-2.3 3.91-2.11.82-11.47-4.45-15.82-8.9l-3.63-3.72.6-11.28c.34-6.2 1.53-15.02 2.66-19.58 1.12-4.57 2.03-8.49 2.03-8.72 0-.23-1.57-1.08-3.49-1.88-2.38-1-3.5-2.11-3.5-3.51 0-2.52.16-2.52 4.94-.08 3.6 1.84 3.9 1.85 4.53.25.47-1.2-.16-2.32-2.06-3.72-6.86-5-8-6.3-6.22-6.99 1.02-.4 3.15.35 5.47 1.92 2.08 1.42 4.26 2.58 4.83 2.58.57 0 1.93-1.65 3.01-3.67 1.09-2.01 4.49-6.44 7.56-9.83 4.15-4.58 5.76-7.2 6.23-10.18.96-5.99 2.38-6.73 10.07-5.28 5.07.96 7.98.95 13.73-.02 10.15-1.7 23.09-.65 32.1 2.63a81.41 81.41 0 0014 3.53c8.67 1.17 10.6 2.2 10.62 5.64.02 4.3 2.43 12.18 5.71 18.68 4.1 8.1 7.07 18.05 8.8 29.44 2.4 15.86 2.25 16.82-3.68 22.71-8.9 8.85-20.84 13.92-39.44 16.72-10.6 1.6-26.17 1.77-35.78.4zM38.93 85.88c-.4-1.77-2.89-5.62-5.55-8.55-2.76-3.05-5.28-7.01-5.88-9.22-.7-2.57-1.88-4.26-3.54-5.02-2.27-1.03-2.5-.92-2.5 1.09.02 3.7 4.46 12.04 9.35 17.55 3.44 3.87 4.62 6.01 4.62 8.38v3.19l2.1-2.1c1.66-1.67 1.95-2.78 1.4-5.32zm45.8-14.55c.46-1.22 0-1.5-2.07-1.25-1.46.17-2.85.88-3.07 1.56-.61 1.87 4.41 1.56 5.13-.31zm1.39-12.17c-.55-7.59-2.25-11.51-7.52-17.35-9.44-10.45-27.26-13.4-40.47-6.69-4.6 2.34-10.99 8.57-13.24 12.94-1.59 3.06-1.58 3.3.2 4.6 1.6 1.19 1.99 1.15 2.85-.32 3.62-6.14 7.66-10.17 12.9-12.85 4.89-2.5 6.96-2.97 12.93-2.94 15.97.1 27.9 10.82 27.9 25.11 0 3.85.24 4.24 2.47 4.24 2.42 0 2.45-.1 1.98-6.74zm-59.9-.42c-.58-1.74-3.55-3.37-4.47-2.45-.43.44.08 1.43 1.15 2.2 2.35 1.73 3.85 1.84 3.32.25z"/><path fill="#d1ced1" d="M49.9 117.7c-7.43-1.06-10-2.39-12.5-6.44-2.79-4.5-2.47-7.79 1.14-11.9 5.17-5.9 8.17-7.47 16.12-8.48 10.26-1.3 17.59-4.27 22.79-9.24l4.4-4.2-2.81-.35c-1.9-.24-3.96.52-6.36 2.36-4.76 3.63-11.44 6-19.24 6.86-8.35.9-11.58 2.37-16.79 7.6-4.9 4.93-5.71 7.24-4.84 13.66.74 5.37-.36 5-1.4-.48l-.71-3.76-.77 3.33c-.42 1.83-1.46 3.6-2.3 3.91-2.11.82-11.47-4.45-15.82-8.9l-3.63-3.72.6-11.28c.34-6.2 1.53-15.02 2.66-19.58 1.12-4.57 2.03-8.49 2.03-8.72 0-.23-1.57-1.08-3.49-1.88-2.38-1-3.5-2.11-3.5-3.51 0-2.52.16-2.52 4.94-.08 3.6 1.84 3.9 1.85 4.53.25.47-1.2-.16-2.32-2.06-3.72-6.86-5-8-6.3-6.22-6.99 1.02-.4 3.15.35 5.47 1.92 2.08 1.42 4.26 2.58 4.83 2.58.57 0 1.93-1.65 3.01-3.67 1.09-2.01 4.49-6.44 7.56-9.83 4.15-4.58 5.76-7.2 6.23-10.18.96-5.99 2.38-6.73 10.07-5.28 5.07.96 7.98.95 13.73-.02 10.15-1.7 23.09-.65 32.1 2.63a81.41 81.41 0 0014 3.53c8.67 1.17 10.6 2.2 10.62 5.64.02 4.3 2.43 12.18 5.71 18.68 4.1 8.1 7.07 18.05 8.8 29.44 2.4 15.86 2.25 16.82-3.68 22.71-8.9 8.85-20.84 13.92-39.44 16.72-10.6 1.6-26.17 1.77-35.78.4zM39.42 87.66c0-2.68-2.35-6.86-5.49-9.78-2.92-2.7-6.49-8.99-6.49-11.41 0-.83-1.34-2.21-2.99-3.06-2.9-1.5-3-1.48-2.98.72.01 3.75 4.43 12.07 9.34 17.6 3.4 3.82 4.62 6.02 4.62 8.32 0 3.05.04 3.07 2 1.3 1.1-.99 2-2.65 2-3.7zM84.7 71.39c.4-1.07-.1-1.5-1.77-1.5-1.29 0-2.9.68-3.58 1.5-1.06 1.28-.8 1.5 1.76 1.5 1.76 0 3.25-.62 3.59-1.5zm1.42-12.23c-.55-7.59-2.25-11.51-7.52-17.35-9.44-10.45-27.26-13.4-40.47-6.69-4.6 2.34-10.99 8.57-13.24 12.94-1.58 3.05-1.57 3.3.13 4.55 2.5 1.83 3.12 1.67 3.79-1 .88-3.53 7.36-9.63 13.03-12.27 6.09-2.84 15.8-3.2 22.74-.83 9.85 3.36 16.76 12.52 16.76 22.22 0 4.92.13 5.17 2.63 5.17 2.63 0 2.63 0 2.15-6.74zm-59.9-.42c-.58-1.74-3.55-3.37-4.47-2.45-.43.44.08 1.43 1.15 2.2 2.35 1.73 3.85 1.84 3.32.25z"/><path fill="#c2bdc5" d="M50.4 117.68c-7.72-1.25-10.15-2.43-12.73-6.2-3.23-4.73-2.87-7.94 1.43-12.7 4.89-5.41 7.84-6.8 17.04-7.95 9.03-1.13 18.77-5.46 22.64-10.06 1.41-1.68 2.56-3.46 2.56-3.96 0-2.01-4.35-.74-8.61 2.51-5.13 3.92-11.22 6.1-19.77 7.06-7.3.83-9.66 1.7-14.13 5.22-5.91 4.65-7.74 8.51-7.12 15.06.33 3.45.21 4.88-.3 3.66-.46-1.1-.9-3.12-1-4.5-.15-2.22-.33-2.09-1.7 1.25-.85 2.06-1.94 3.75-2.43 3.75-2.07 0-11.18-5.33-14.98-8.76l-4.09-3.7.57-11.49C8.1 80.32 9.24 72 10.41 67.5c2.64-10.09 2.63-10.18-.94-11.42-2.7-.94-4.88-3.58-3.83-4.62.22-.22 2.27.44 4.57 1.47 4.16 1.86 4.17 1.86 4.85-.27.37-1.17.23-2.28-.3-2.45-2.44-.82-9.22-6.53-8.72-7.34.9-1.44 2.34-1.08 5.75 1.44 5.25 3.87 5.35 3.87 7.98-.62 1.38-2.35 4.94-7 7.93-10.36 3.97-4.44 5.61-7.17 6.08-10.08.93-5.81 2.38-6.65 9.16-5.24 4.36.9 7.94.88 16.07-.11 12.4-1.52 22.65-.41 32.54 3.5a58.43 58.43 0 0012.75 3.17c9.13.96 9.58 1.33 10.32 8.4.44 4.25 1.98 8.8 5.14 15.26 5.34 10.9 8.02 20.84 9.64 35.77l1.18 10.95-4.9 5.01c-8.9 9.09-21.57 14.56-40.35 17.4-10.37 1.58-26.31 1.73-34.93.33zM39.42 87.66c0-2.73-2.36-6.85-5.78-10.1a24.15 24.15 0 01-4.68-6.99c-2.67-6.49-2.97-6.92-5.3-7.78-1.73-.64-2.2-.45-2.2.9-.02 4.19 3.88 11.93 8.73 17.37 3.94 4.43 5.24 6.65 5.24 8.99 0 3.05.04 3.07 2 1.3 1.1-.99 2-2.65 2-3.7zM84.7 71.39c.4-1.07-.1-1.5-1.77-1.5-1.29 0-2.9.68-3.58 1.5-1.06 1.28-.8 1.5 1.76 1.5 1.76 0 3.25-.62 3.59-1.5zm1.62-11.23c-.03-21.28-25.61-35.49-46.46-25.8-6.55 3.04-10.89 6.83-14.1 12.32-2.56 4.36-2.59 4.57-.8 5.88 2.57 1.88 3.18 1.73 3.85-.95.88-3.53 7.36-9.63 13.03-12.27 6.09-2.84 15.8-3.2 22.74-.83 9.85 3.36 16.76 12.52 16.76 22.22 0 4.85.16 5.17 2.5 5.17 2.37 0 2.5-.28 2.48-5.74zm-61.4-3.89c-.97-.7-2.14-1.04-2.61-.76-1.58.98-.87 3.1 1.4 4.12 1.76.8 2.31.69 2.6-.53.2-.85-.44-2.13-1.4-2.83z"/><path fill="#fcd76e" d="M55.89 118.3c-.55-.19-3.7-.65-6.99-1.02-5.26-.6-6.44-1.15-9.73-4.61-5.32-5.6-5.11-8.75 1-14.86 4.8-4.8 9.67-6.94 15.79-6.95 7.89-.01 19.6-5.64 24.4-11.73l2.18-2.75-2.61-.31c-1.76-.22-3.9.7-6.5 2.75-5.44 4.31-9.96 5.99-20.3 7.53-10.43 1.56-15.5 4.52-19.91 11.62-2.46 3.95-2.62 4.78-1.72 8.74.55 2.4.8 4.58.55 4.83s-.86-1.5-1.34-3.88l-.89-4.33-1.27 3.74c-.7 2.06-1.69 3.75-2.21 3.75-2.09 0-11.17-5.26-14.9-8.64-3.92-3.54-3.96-3.64-3.96-10.81 0-7.94 2.23-22.54 4.46-29.22l1.42-4.25-3.94-2c-2.16-1.11-3.93-2.66-3.93-3.46 0-1.18.78-1.1 4.44.47 4.41 1.89 4.44 1.89 5.08-.11.35-1.11.49-2.14.3-2.28l-5.17-3.53c-3.34-2.26-4.51-3.58-3.8-4.3.72-.72 1.83-.53 3.59.6 8.09 5.24 7.02 5.2 9.82.42 1.39-2.36 4.96-7.04 7.95-10.39 3.97-4.44 5.61-7.17 6.08-10.08.93-5.85 2.36-6.65 9.33-5.2 4.6.95 7.83.94 15.6-.1 12-1.58 23.49-.33 32.84 3.57a51.36 51.36 0 0012.75 3.16c3.57.31 7.21 1.2 8.1 1.97.93.81 1.9 3.81 2.28 7.1.43 3.7 2.22 8.88 5.07 14.7 5.17 10.52 7.92 20.8 9.59 35.74l1.2 10.8-4.39 4.5c-8.95 9.19-22.39 15.02-40.94 17.76-9.39 1.38-26.58 2-29.32 1.06zM39.42 87.66c0-2.73-2.36-6.85-5.78-10.1a24.15 24.15 0 01-4.68-6.99c-2.67-6.49-2.97-6.92-5.3-7.78-1.76-.65-2.2-.45-2.2.97 0 4.35 3.54 11.56 8.14 16.6 3.3 3.62 5.13 6.59 5.52 8.98.55 3.42.66 3.5 2.44 1.9 1.02-.93 1.86-2.54 1.86-3.58zM85.1 71.14c.6-1.83-4.24-1.56-5.8.33-1.16 1.39-.92 1.54 2.04 1.25 1.84-.18 3.54-.89 3.76-1.58zm1.23-10.98c-.02-13.2-9.36-24.05-23.9-27.77-14.45-3.69-31.06 2.97-37.14 14.89-1.97 3.85-1.98 4.07-.25 5.33 2.5 1.83 3.1 1.66 3.78-1 .88-3.53 7.36-9.63 13.03-12.27 6.09-2.84 15.8-3.2 22.74-.83 9.85 3.36 16.76 12.52 16.76 22.22 0 4.85.16 5.17 2.5 5.17 2.37 0 2.5-.28 2.48-5.74zm-61.4-3.89c-.97-.7-2.14-1.04-2.61-.76-1.58.98-.87 3.1 1.4 4.12 1.76.8 2.31.69 2.6-.53.2-.85-.44-2.13-1.4-2.83z"/><path fill="#cbb7b2" d="M55.89 118.3c-.55-.19-3.7-.65-6.99-1.02-5.26-.6-6.44-1.15-9.73-4.61-5.32-5.6-5.11-8.75 1-14.86 4.77-4.76 9.67-6.94 15.65-6.95 8.31-.01 21.23-6.52 25.3-12.73 1.4-2.16 1.34-2.25-1.52-2.25-1.82 0-4.48 1.2-6.85 3.09-5.3 4.22-9.5 5.8-18.33 6.96-11.16 1.45-11.5 1.58-16.28 6.17-6.33 6.09-7.8 9.35-6.6 14.68.53 2.37.76 4.5.5 4.76-.24.25-.85-1.5-1.33-3.88l-.89-4.33-1.27 3.74c-.7 2.06-1.69 3.75-2.21 3.75-2.09 0-11.17-5.26-14.9-8.64-3.92-3.54-3.96-3.64-3.96-10.81 0-7.94 2.23-22.54 4.46-29.22l1.42-4.25-3.94-2c-2.16-1.11-3.93-2.66-3.93-3.46 0-1.18.78-1.1 4.44.47 4.41 1.89 4.44 1.89 5.08-.11.35-1.11.49-2.14.3-2.28l-5.17-3.53c-3.34-2.26-4.51-3.58-3.8-4.3.72-.72 1.83-.53 3.59.6 8.09 5.24 7.02 5.2 9.82.42 1.39-2.36 4.96-7.04 7.95-10.39 3.97-4.44 5.61-7.17 6.08-10.08.93-5.85 2.36-6.65 9.33-5.2 4.6.95 7.83.94 15.6-.1 12-1.58 23.49-.33 32.84 3.57a51.36 51.36 0 0012.75 3.16c3.57.31 7.21 1.2 8.1 1.97.93.81 1.9 3.81 2.28 7.1.43 3.7 2.22 8.88 5.07 14.7 5.17 10.52 7.92 20.8 9.59 35.74l1.2 10.8-4.39 4.5c-8.95 9.19-22.39 15.02-40.94 17.76-9.39 1.38-26.58 2-29.32 1.06zM39.07 86.1c-.32-1.99-2.31-5.28-5-8.27-2.47-2.74-5.11-6.88-5.88-9.2-1.52-4.56-5.93-8.04-6.56-5.17-.74 3.37 3.15 11.64 7.95 16.89 3.32 3.63 5.15 6.6 5.54 9 .56 3.48.63 3.53 2.53 1.8 1.47-1.31 1.82-2.59 1.42-5.05zM85.1 71.14c.6-1.83-4.24-1.56-5.8.33-1.16 1.39-.92 1.54 2.04 1.25 1.84-.18 3.54-.89 3.76-1.58zm1.23-10.98c-.02-13.2-9.36-24.05-23.9-27.77-14.45-3.69-31.06 2.97-37.14 14.89-1.97 3.85-1.98 4.07-.25 5.33 2.47 1.8 3.17 1.66 3.96-.83.37-1.17 2.46-4.08 4.65-6.45 6.59-7.15 18.62-10.2 28.91-7.34 10.5 2.92 18.8 13.08 18.8 23.04 0 4.53.17 4.87 2.49 4.87 2.37 0 2.5-.28 2.48-5.74zm-60.98-3.48c-1.15-.96-2.5-1.5-2.99-1.2-1.62 1-.93 3.11 1.35 4.15 3.16 1.42 4.34-.7 1.64-2.95z"/><path fill="#b9b9c2" d="M55.89 118.3c-.55-.19-3.7-.65-6.99-1.02-5.26-.6-6.44-1.15-9.73-4.61-5.32-5.6-5.11-8.75 1-14.86 4.77-4.76 9.67-6.94 15.65-6.95 8.31-.01 21.23-6.52 25.3-12.73 1.42-2.18 1.36-2.25-1.98-2.25-2.36 0-4.16.77-5.74 2.45-3.5 3.74-10.25 6.46-18.77 7.57-4.25.55-8.69 1.22-9.86 1.48-5.05 1.1-13.49 11.34-16.25 19.7-.68 2.06-1.66 3.74-2.18 3.74-2.12 0-11.2-5.29-15.04-8.76l-4.09-3.7.57-10.99c.34-6.48 1.55-14.8 2.96-20.29l2.38-9.3-3.82-1.95c-2.1-1.07-3.81-2.6-3.81-3.39 0-1.18.78-1.1 4.44.47 4.43 1.9 4.44 1.9 5.1-.16.36-1.14.24-2.35-.27-2.7l-4.6-2.94c-2.02-1.28-3.68-2.97-3.68-3.75 0-1.77 1-1.79 3.53-.07 1.08.74 3.15 2.1 4.6 3.04L17.22 48l2.64-4.5c1.45-2.47 5.07-7.13 8.06-10.36 4.1-4.43 5.6-6.87 6.09-9.99.94-5.88 2.15-6.57 9.1-5.12 4.58.95 7.82.94 15.6-.1 12-1.58 23.48-.33 32.83 3.57a51.36 51.36 0 0012.75 3.16c3.57.31 7.21 1.2 8.1 1.97.93.81 1.9 3.81 2.28 7.1.43 3.7 2.22 8.88 5.07 14.7 5.17 10.52 7.92 20.8 9.59 35.74l1.2 10.8-4.39 4.5c-8.95 9.19-22.39 15.02-40.94 17.76-9.39 1.38-26.58 2-29.32 1.06zM39.07 86.1c-.32-2-2.34-5.3-5.13-8.4-2.79-3.11-5.04-6.81-5.74-9.42-.89-3.32-1.8-4.53-3.95-5.28-2.37-.83-2.8-.71-2.8.8 0 4.32 3.55 11.54 8.15 16.57 3.3 3.62 5.13 6.59 5.52 8.98.56 3.48.63 3.53 2.53 1.8 1.47-1.31 1.82-2.59 1.42-5.05zM85.1 71.14c.62-1.9-5.4-1.6-6.13.32-.48 1.24.04 1.5 2.56 1.24 1.74-.17 3.35-.87 3.57-1.56zm1.03-12.47c-.84-12.83-8.43-21.72-22.1-25.88-15.08-4.58-32.22 1.86-38.77 14.58-1.94 3.77-1.95 3.98-.22 5.24 2.47 1.8 3.17 1.66 3.96-.83.37-1.17 2.46-4.08 4.65-6.45 6.59-7.15 18.62-10.2 28.91-7.34 10.5 2.92 18.8 13.08 18.8 23.04 0 4.6.14 4.87 2.62 4.87h2.62zm-60.79-2c-2.7-2.24-3.87-2.21-3.87.1 0 2.25 4.12 4.42 5.23 2.76.42-.62-.18-1.88-1.36-2.86zm5.75 52.94a17.18 17.18 0 01-.53-4.28c.05-1.1.5-.25 1 1.9.98 4.14.56 6.23-.47 2.38z"/><path fill="#face4d" d="M50.4 117.63c-7.43-1.06-10.27-2.61-13.02-7.12-2.8-4.6-2.43-7.14 1.72-11.73 4.6-5.1 7.6-6.65 14.39-7.45 12.49-1.48 20.93-5.2 26.34-11.61l2.82-3.34-3.2-.31c-2.4-.24-4.03.43-6.67 2.74-4.7 4.13-9.4 5.95-18.36 7.12-10.9 1.42-11.62 1.65-15.46 5.03-3.87 3.4-9.98 12.86-11.04 17.11-.38 1.51-1.1 2.75-1.61 2.75-2 0-10.57-5-14.73-8.6L7.2 98.44l.6-11.03c.35-6.32 1.61-15 2.96-20.33l2.36-9.3-3.82-1.95c-2.1-1.07-3.81-2.38-3.81-2.92 0-1.25-.03-1.25 4.9.49 3.67 1.29 4.23 1.29 4.73 0 .94-2.46-.36-4.27-4.6-6.44-2.22-1.13-4.04-2.72-4.04-3.53 0-2.06.6-1.9 5.65 1.51 2.44 1.65 4.6 3 4.79 3 .2 0 1.53-2 2.97-4.46 1.44-2.46 5.05-7.1 8.04-10.33 4.1-4.43 5.6-6.87 6.09-9.99.94-5.85 2.25-6.64 8.55-5.13 4.14 1 7.44 1 16.3.01 13.45-1.5 23.26-.35 34.27 4.04 4.44 1.76 9.17 2.9 12 2.9 6.9 0 8.72 1.71 9.47 8.92a29.4 29.4 0 003.65 11.37c5.76 10.2 9.96 25.79 11.5 42.6l.68 7.5-5.43 5.14c-5.91 5.6-15.94 11.1-24.93 13.7-14.26 4.1-34.9 5.53-49.68 3.42zM39.07 86.1c-.32-2-2.34-5.3-5.13-8.4-2.76-3.09-5.05-6.81-5.73-9.38-.76-2.83-1.93-4.61-3.5-5.33-3.1-1.41-3.25-1.38-3.25.75 0 4.38 3.52 11.58 8.14 16.63 3.3 3.62 5.13 6.59 5.52 8.98.56 3.48.63 3.53 2.53 1.8 1.47-1.31 1.82-2.59 1.42-5.05zM85 71.35c.82-2.13.01-2.66-2.96-1.91-3.86.97-4.31 3.45-.63 3.45 1.78 0 3.24-.63 3.59-1.54zm1.67-7.58c.95-3.64-1.33-12.81-4.45-17.88-3.89-6.32-9.72-10.52-18.2-13.1-14.62-4.45-30.28 1.04-38.18 13.38-2.9 4.53-2.97 5.91-.4 7.51 1.75 1.1 2.15.87 3.6-2 5.75-11.43 20.3-17.37 33.52-13.7 10.5 2.93 18.8 13.09 18.8 23.05 0 4.47.19 4.87 2.37 4.87 1.59 0 2.56-.7 2.94-2.13zm-61.33-7.1c-2.7-2.24-3.87-2.21-3.87.1 0 2.25 4.12 4.42 5.23 2.76.42-.62-.18-1.88-1.36-2.86zm5.19 48.58c.05-1.17.28-1.4.6-.6.29.71.25 1.57-.08 1.9-.33.34-.57-.25-.52-1.3z"/><path fill="#adacb1" d="M50.4 117.63c-7.43-1.06-10.27-2.61-13.02-7.12-2.8-4.6-2.43-7.14 1.72-11.73 4.6-5.1 7.6-6.65 14.39-7.45 12.49-1.48 20.93-5.2 26.34-11.61l2.82-3.34-3.27-.32c-2.39-.23-3.97.34-5.9 2.13-5.07 4.75-11 6.6-31.97 9.95-.82.13-1.75-1.04-2.22-2.78-.44-1.65-2.37-4.66-4.28-6.7-3.61-3.82-7.57-10.65-7.57-13.06 0-.75-1.14-1.9-2.54-2.53-3.31-1.51-3.44-1.48-3.44.66 0 4.38 3.52 11.58 8.14 16.63 3.3 3.62 5.13 6.59 5.52 8.98.57 3.52.62 3.55 2.7 1.81 1.3-1.1 1.1-.64-.54 1.22-3.58 4.04-8.53 12.35-9.37 15.7-.37 1.51-1.1 2.75-1.6 2.75-2 0-10.57-5-14.73-8.6L7.2 98.44l.6-11.03c.35-6.32 1.61-15 2.96-20.33l2.36-9.3-3.82-1.95c-2.1-1.07-3.81-2.38-3.81-2.92 0-1.25-.03-1.25 4.9.49 3.67 1.29 4.23 1.29 4.73 0 .94-2.46-.36-4.27-4.6-6.44-2.22-1.13-4.04-2.72-4.04-3.53 0-2.06.6-1.9 5.65 1.51 2.44 1.65 4.6 3 4.79 3 .2 0 1.53-2 2.97-4.46 1.44-2.46 5.05-7.1 8.04-10.33 4.1-4.43 5.6-6.87 6.09-9.99.94-5.85 2.25-6.64 8.55-5.13 4.14 1 7.44 1 16.3.01 13.45-1.5 23.26-.35 34.27 4.04 4.44 1.76 9.17 2.9 12 2.9 6.9 0 8.72 1.71 9.47 8.92a29.4 29.4 0 003.65 11.37c5.76 10.2 9.96 25.79 11.5 42.6l.68 7.5-5.43 5.14c-5.91 5.6-15.94 11.1-24.93 13.7-14.26 4.1-34.9 5.53-49.68 3.42zM85 71.35c.32-.85.34-1.8.03-2.1-.85-.85-6 1.1-6.44 2.45-.62 1.85 5.7 1.5 6.41-.35zm1.67-7.58c.95-3.64-1.33-12.81-4.45-17.88-3.89-6.32-9.72-10.52-18.2-13.1-14.62-4.45-30.28 1.04-38.18 13.38-2.84 4.44-2.94 5.61-.63 7.37 2.47 1.87 2.94 1.72 3.67-1.2.36-1.42 2.83-4.76 5.48-7.41 10.48-10.48 29.05-10.58 39.45-.22 5.04 5.02 6.66 8.45 7.29 15.37.47 5.21.76 5.82 2.77 5.82 1.45 0 2.44-.75 2.8-2.13zm-61.07-6.92c-2.96-2.42-4.13-2.44-4.13-.08 0 2.2 4.01 4.38 5.49 2.96.65-.63.19-1.61-1.36-2.88zm4.93 48.4c.05-1.17.28-1.4.6-.6.29.71.25 1.57-.08 1.9-.33.34-.57-.25-.52-1.3z"/><path fill="#99a8b0" d="M51.91 117.63c-8.83-1-11.64-2.38-14.53-7.12-2.7-4.43-2.44-7.05 1.11-11.1 4.45-5.06 8.63-7.24 15.4-8.01 12.38-1.42 19.73-4.66 25.58-11.31l3.27-3.7-3.32-.33c-2.43-.23-4 .33-5.93 2.13-5.08 4.75-11.01 6.6-31.98 9.95-.82.13-1.75-1.04-2.22-2.78-.44-1.65-2.37-4.66-4.28-6.7-3.72-3.94-7.57-10.67-7.57-13.24 0-.86-1.15-2-2.56-2.54-3.44-1.3-3.42-1.3-3.42 1.44 0 4.25 3.97 11.93 8.63 16.68 3.74 3.82 4.55 5.32 4.68 8.66.15 3.89.23 3.97 2.1 2.36 1.06-.91.53.13-1.18 2.33-3.59 4.61-8.25 13.15-8.25 15.12 0 2.16-2.2 1.59-8.54-2.21C8.85 101.22 7.48 99.45 7.5 92.42c0-7.25 2.33-23.16 4.35-29.79l1.45-4.76-3.9-2c-2.15-1.09-3.9-2.42-3.9-2.96 0-1.33.59-1.24 4.13.59 6.98 3.61 8.25-2.18 1.39-6.35-2.46-1.49-4.48-3.27-4.5-3.95-.04-1.8.61-1.6 5.46 1.74 2.4 1.65 4.57 3 4.84 3 .26 0 1.8-2.14 3.4-4.74 1.6-2.61 5.28-7.32 8.17-10.48 3.96-4.32 5.37-6.7 5.78-9.71.74-5.57 1.94-6.28 8.36-4.9 4.04.87 8.04.86 16.34-.02 13.57-1.43 23.9-.22 33.94 3.98 4.58 1.91 8.7 2.91 12 2.91 7.3 0 9.08 1.63 9.74 8.9.37 4.1 1.5 7.65 3.57 11.29 4.57 7.98 8.83 21.89 10.58 34.5.86 6.19 1.56 12.16 1.56 13.26 0 3.67-8.75 11.7-17.39 15.93-16.93 8.32-38.13 11.37-60.95 8.77zm33.08-46.28c.32-.85.3-1.83-.05-2.18-.93-.93-5.85 1-6.34 2.47-.63 1.9 5.66 1.61 6.39-.29zm1.63-11.9c-.39-11-6.9-20.08-18.2-25.38-4.72-2.21-6.88-2.6-14.53-2.56-7.71.04-9.78.43-14.67 2.8-6.16 2.98-14.36 11.17-15.43 15.4-.45 1.82-.12 2.9 1.2 3.87 2.58 1.89 3.15 1.7 3.88-1.24.36-1.42 2.83-4.76 5.48-7.41 10.48-10.48 29.05-10.58 39.45-.22 5.37 5.35 6.9 8.83 6.98 15.77l.06 6.06 3-.63c2.94-.62 2.99-.73 2.78-6.46zm-59.18-.73c0-1.32-3.02-3.72-4.74-3.76-2.2-.06-1.37 3.97 1 4.87 2.47.93 3.74.55 3.74-1.11z"/><path fill="#fbc62e" d="M51.91 117.63c-8.83-1-11.64-2.38-14.53-7.12-2.7-4.43-2.44-7.05 1.11-11.1 4.45-5.06 8.63-7.23 15.4-8.01 12.79-1.48 21.45-5.54 26.59-12.49 2.23-3.01 2.27-3.03 12.11-3.03 7.46 0 9.78-.3 9.46-1.24-.27-.84-3.22-1.35-8.96-1.54-7.82-.26-8.5-.44-8.05-2.17.51-1.97 2.16-2.4 13.77-3.58 7.56-.77 9.48-1.31 9.48-2.66 0-1.04-11.95-.53-18.7.8l-2.76.55-.14-6.08c-.26-11.26-6.78-20.5-18.28-25.9-4.7-2.2-6.87-2.58-14.52-2.55-7.71.04-9.78.43-14.67 2.8-6.1 2.94-14.36 11.16-15.4 15.29-.33 1.33-.89 2.27-1.24 2.1-.34-.19-1.82-.93-3.27-1.67l-2.65-1.33 2.9-4.62c1.6-2.54 5.42-7.45 8.5-10.9 4.18-4.72 5.7-7.27 6.1-10.22.74-5.52 1.95-6.22 8.36-4.85 4.04.87 8.04.86 16.34-.02 13.57-1.43 23.9-.22 33.94 3.98 4.58 1.91 8.7 2.91 12 2.91 7.3 0 9.08 1.63 9.74 8.9.37 4.1 1.5 7.65 3.57 11.29 4.57 7.98 8.83 21.89 10.58 34.5.86 6.19 1.56 12.16 1.56 13.26 0 3.67-8.75 11.7-17.39 15.93-16.93 8.32-38.13 11.37-60.95 8.77zm-33-10.37C8.84 101.22 7.47 99.45 7.48 92.42c0-7.22 2.33-23.15 4.33-29.7.78-2.59 1.15-4.96.83-5.3-.33-.32 1.4.3 3.85 1.4 3.9 1.74 4.53 2.46 5.04 5.78.93 6.17 3.7 11.48 8.54 16.4 3.76 3.83 4.56 5.32 4.7 8.66.14 3.89.22 3.97 2.08 2.36 1.07-.91.54.13-1.17 2.33-3.59 4.61-8.25 13.15-8.25 15.12 0 2.16-2.2 1.59-8.54-2.21zm21.25-19.08a18.4 18.4 0 01-1.06-3.31c-.32-1.38-2.16-4.16-4.09-6.2-3.73-3.95-7.57-10.68-7.57-13.26 0-1.25.4-1.36 1.94-.54 2.31 1.24 4.05 1.33 4.05.22 0-.45-1.56-1.56-3.47-2.47-2.47-1.18-3.3-2.11-2.86-3.24.43-1.13.92-1.29 1.67-.53 1.5 1.5 2.67 1.33 2.67-.38 0-.8-.74-1.86-1.64-2.37-4.66-2.6 5.59-14.87 14.67-17.57 10.9-3.24 22.29-.84 29.33 6.18 5.27 5.25 6.85 8.82 6.95 15.65.1 5.86.05 5.95-3.15 6.88-3.83 1.12-4.28 2.66-.78 2.66 1.78 0 2.3.41 1.89 1.5-.38.98-1.94 1.49-4.55 1.49-4.32 0-4.94 2.02-.9 2.97l2.25.53-2.33 2.13c-4.04 3.7-8.95 5.57-19.25 7.35-5.51.95-10.76 2.05-11.66 2.43-.9.38-1.86.33-2.11-.12zm-22.9-30.9c-3.38-1.4-3.6-1.72-2.5-3.7.67-1.18 1.28-2.3 1.36-2.47.09-.18 1.49.36 3.12 1.2 2.38 1.24 2.86 2.03 2.47 4.07-.27 1.4-.55 2.51-.62 2.49l-3.83-1.59z"/><path fill="#a29caa" d="M51.91 117.63c-8.83-1-11.64-2.38-14.53-7.12-2.7-4.43-2.44-7.05 1.11-11.1 4.45-5.06 8.63-7.23 15.4-8.01 12.79-1.48 21.45-5.54 26.59-12.49 2.23-3.01 2.27-3.03 12.11-3.03 7.46 0 9.78-.3 9.46-1.24-.27-.84-3.22-1.35-8.96-1.54-7.82-.26-8.5-.44-8.05-2.17.51-1.97 2.16-2.4 13.77-3.58 7.56-.77 9.48-1.31 9.48-2.66 0-1.04-11.95-.53-18.7.8l-2.76.55-.14-6.08c-.26-11.26-6.78-20.5-18.28-25.9-4.7-2.2-6.87-2.58-14.52-2.55-7.71.04-9.78.43-14.67 2.8-6.1 2.94-14.36 11.16-15.4 15.29-.33 1.33-.89 2.27-1.24 2.1-.34-.19-1.82-.93-3.27-1.67l-2.65-1.33 2.9-4.62c1.6-2.54 5.42-7.45 8.5-10.9 4.18-4.72 5.7-7.27 6.1-10.22.74-5.52 1.95-6.22 8.36-4.85 4.04.87 8.04.86 16.34-.02 13.57-1.43 23.9-.22 33.94 3.98 4.58 1.91 8.7 2.91 12 2.91 7.3 0 9.08 1.63 9.74 8.9.37 4.1 1.5 7.65 3.57 11.29 4.57 7.98 8.83 21.89 10.58 34.5.86 6.19 1.56 12.16 1.56 13.26 0 3.67-8.75 11.7-17.39 15.93-16.93 8.32-38.13 11.37-60.95 8.77zm-33-10.37C8.84 101.22 7.47 99.45 7.48 92.42c0-7.22 2.33-23.15 4.33-29.7.78-2.59 1.15-4.96.83-5.3-.33-.32 1.4.3 3.85 1.4 3.9 1.74 4.53 2.46 5.04 5.78.93 6.17 3.7 11.48 8.54 16.4 3.76 3.83 4.56 5.32 4.7 8.66.14 3.89.22 3.97 2.08 2.36 1.07-.91.54.13-1.17 2.33-3.59 4.61-8.25 13.15-8.25 15.12 0 2.16-2.2 1.59-8.54-2.21zM39.36 85.2c-.67-2.01-2.94-5.54-5.06-7.83-3.54-3.84-6.87-9.88-6.87-12.47 0-.74.64-.72 2.08.05 1.98 1.06 5.8.52 4.64-.65-.3-.3-.83-.51-1.15-.46-.33.06-1.92-.58-3.55-1.42-1.96-1.02-2.75-2.03-2.36-3.06.53-1.36.78-1.36 2.34.05 1.6 1.46 1.79 1.41 2.3-.56.41-1.57.04-2.29-1.37-2.66-2.42-.63-2.41-1.4.1-6.3 3.57-7.02 14.52-12.93 23.92-12.93 12.44 0 23.88 8.97 26.41 20.7.95 4.43-.23 9.54-2.05 8.84-.77-.3-1.4-.1-1.4.43s-.89.97-1.97.97c-1.24 0-1.77.5-1.44 1.35.31.83 1.47 1.17 2.97.88 1.96-.38 2.34-.14 1.84 1.14-.42 1.1-1.83 1.62-4.4 1.62-2.49 0-3.98.53-4.37 1.55-.34.89-.17 1.29.4.94.54-.34.98-.18.98.35s1.01.71 2.25.4c2.22-.55 2.23-.54.34 1.6-3.24 3.67-11.56 6.85-21.34 8.17-5.09.7-9.5 1.64-9.79 2.1-1.07 1.74-2.28.76-3.45-2.8zm-22.1-27.92c-3.39-1.4-3.6-1.72-2.5-3.7.66-1.18 1.27-2.3 1.35-2.47.09-.18 1.49.36 3.12 1.2 2.38 1.24 2.86 2.03 2.47 4.07-.27 1.4-.55 2.51-.62 2.49l-3.83-1.59z"/><path fill="#d0b55c" d="M55.21 117.79c-13.31-1.27-16.64-2.97-18.84-9.63-1.35-4.11.57-8 6.23-12.58 3.03-2.45 5.33-3.22 12.98-4.36 11.32-1.68 18.34-4.92 23.6-10.9l3.91-4.44h9.69c7.3 0 9.59-.3 9.27-1.24-.27-.84-3.22-1.35-8.96-1.54-7.82-.26-8.5-.44-8.05-2.17.51-1.97 2.16-2.4 13.77-3.58 7.56-.77 9.48-1.31 9.48-2.66 0-1.04-11.95-.53-18.7.8l-2.76.55-.14-6.07c-.26-11.38-6.67-20.46-18.28-25.9-7.65-3.6-21-3.73-28.49-.3-5.86 2.68-12.85 9.15-15.55 14.37l-1.91 3.7-2.9-1.67-2.92-1.67 4.94-7.14c2.72-3.93 6.5-8.55 8.39-10.28 2.42-2.2 3.64-4.33 4.1-7.18.8-5.07 2.81-7.25 5.7-6.19 1.18.43 10.37.63 20.41.45 19.13-.36 24.6.33 33.14 4.14 2.47 1.1 7.55 2.32 11.29 2.7 3.73.38 7.29 1.2 7.89 1.8.6.6 1.47 3.78 1.91 7.05.51 3.7 2.36 9.02 4.9 14.06 5.7 11.29 8.91 24.43 10.39 42.45.4 4.9.32 5.08-4.85 10.1-9.58 9.3-25.18 15.21-45.64 17.31-10.9 1.12-12.5 1.12-24 .02zm-34.75-9.56a76.95 76.95 0 01-8.73-6.05c-4.17-3.41-4.25-3.59-4.23-9.64.03-7.47 1.45-17.87 3.66-26.64.9-3.56 1.63-6.99 1.64-7.6 0-.73 1.47-.48 4.08.69 3.68 1.65 4.14 2.25 4.74 6.31.83 5.66 5.1 13.6 9.46 17.56 3.12 2.84 4.02 5.49 3.38 9.94-.18 1.25.04 1.25 1.63.03 1.29-1 1.19-.68-.34 1.05-1.19 1.36-3.81 5.72-5.83 9.7-2.02 3.98-3.96 7.23-4.32 7.23-.36-.01-2.67-1.17-5.14-2.58zm18.9-23.03c-.66-2.01-2.93-5.54-5.05-7.83-3.2-3.48-6.87-9.84-6.87-11.94 0-.3 1.24-.42 2.75-.28 1.5.14 2.86-.08 3-.5.13-.4.01-.73-.27-.72-.28 0-1.83-.67-3.46-1.5-1.96-1.03-2.75-2.04-2.36-3.07.53-1.36.78-1.36 2.34.05 1.6 1.46 1.79 1.41 2.3-.56.41-1.57.04-2.29-1.37-2.66-2.42-.63-2.41-1.4.1-6.3 3.57-7.02 14.52-12.93 23.92-12.93 12.44 0 23.88 8.97 26.41 20.7.95 4.43-.23 9.54-2.05 8.84-.77-.3-1.4-.1-1.4.43s-.89.97-1.97.97c-1.24 0-1.77.5-1.44 1.35.31.83 1.47 1.17 2.97.88 1.96-.38 2.34-.14 1.84 1.14-.42 1.1-1.83 1.62-4.4 1.62-2.49 0-3.98.53-4.37 1.55-.34.89-.17 1.29.4.94.54-.34.98-.18.98.35s1.01.71 2.25.4c2.22-.55 2.23-.54.34 1.6-3.24 3.67-11.56 6.85-21.34 8.17-5.09.7-9.5 1.64-9.79 2.1-1.07 1.74-2.28.76-3.45-2.8zm-22.1-27.92c-3.6-1.5-3.67-1.61-2.18-3.89 1.33-2.02 1.87-2.2 3.96-1.24 1.73.79 2.42 1.9 2.42 3.93 0 1.56-.12 2.81-.25 2.79-.14-.03-1.92-.75-3.96-1.6z"/><path fill="#fac11a" d="M55.21 117.79c-13.31-1.27-16.64-2.97-18.84-9.63-1.35-4.11.57-8 6.23-12.58 3.03-2.45 5.33-3.22 12.98-4.36 11.32-1.68 18.34-4.92 23.6-10.9l3.91-4.44h9.69c7.3 0 9.59-.3 9.27-1.24-.27-.84-3.22-1.35-8.96-1.54-7.82-.26-8.5-.44-8.05-2.17.51-1.97 2.16-2.4 13.77-3.58 7.56-.77 9.48-1.31 9.48-2.66 0-1.04-11.95-.53-18.7.8l-2.76.55-.14-6.07c-.26-11.38-6.67-20.46-18.28-25.9-7.65-3.6-21-3.73-28.49-.3-5.86 2.68-12.85 9.15-15.55 14.37l-1.91 3.7-2.9-1.67-2.92-1.67 4.94-7.14c2.72-3.93 6.5-8.55 8.39-10.28 2.42-2.2 3.64-4.33 4.1-7.18.8-5.07 2.81-7.25 5.7-6.19 1.18.43 10.37.63 20.41.45 19.13-.36 24.6.33 33.14 4.14 2.47 1.1 7.55 2.32 11.29 2.7 3.73.38 7.29 1.2 7.89 1.8.6.6 1.47 3.78 1.91 7.05.51 3.7 2.36 9.02 4.9 14.06 5.7 11.29 8.91 24.43 10.39 42.45.4 4.9.32 5.08-4.85 10.1-9.58 9.3-25.18 15.21-45.64 17.31-10.9 1.12-12.5 1.12-24 .02zm-34.75-9.56a76.95 76.95 0 01-8.73-6.05c-4.17-3.41-4.25-3.59-4.23-9.64.03-7.47 1.45-17.87 3.66-26.64.9-3.56 1.63-6.99 1.64-7.6 0-.73 1.47-.48 4.08.69 3.68 1.65 4.14 2.25 4.74 6.31.83 5.66 5.1 13.6 9.46 17.56 3.12 2.84 4.02 5.49 3.38 9.94-.18 1.25.04 1.25 1.63.03 1.29-1 1.19-.68-.34 1.05-1.19 1.36-3.81 5.72-5.83 9.7-2.02 3.98-3.96 7.23-4.32 7.23-.36-.01-2.67-1.17-5.14-2.58zm18.9-23.03c-2.3-6.1-7.83-9.7-10.4-15.62-1.85-4.42-2.24-5.96.04-4.9.75.35 1.04.45 1.47.49 1.33.1 2.05-.1 2.31-.48-.02-.4.08-.47-1.09-1.12a30.1 30.1 0 00-2.23-1.12c-.3-.14-.74-.19-1.56-1.01-.83-.83-1.04-1.32-.8-2.1.53-1.63 1.28-.97 2.22-.03.64.36 1.2 1.16 2.2-.02.48-1.27.06-2.38-1.3-3.45-1.98-1.58-1.98-1.59.14-5.75 3.68-7.21 14.51-13.13 24.03-13.13 12.44 0 23.88 8.97 26.41 20.7.96 4.46-.18 9.29-2.02 8.58-.79-.3-1.43-.03-1.43.6s-.65 1.02-1.43.85c-.79-.16-1.46.05-1.5.46-.22 2.48.13 2.93 1.93 2.45 1.3-.33 2-.03 2 .89 0 1-1.3 1.4-4.5 1.4-3.4 0-4.49.38-4.49 1.56 0 .85.45 1.27 1 .94.55-.34 1-.15 1 .44 0 .58.73 1.05 1.62 1.05 1.31 0 1.39.28.4 1.48-2.48 2.99-11.63 6.31-20.76 7.54-5.1.7-9.5 1.64-9.8 2.1-1.07 1.74-2.28.76-3.45-2.8zm-22.1-27.92c-3.6-1.5-3.67-1.61-2.18-3.89 1.33-2.02 1.87-2.2 3.96-1.24 1.73.79 2.42 1.9 2.42 3.93 0 1.56-.12 2.81-.25 2.79-.14-.03-1.92-.75-3.96-1.6z"/><path fill="#9795a5" d="M55.21 117.79c-13.31-1.27-16.64-2.97-18.84-9.63-1.35-4.11.57-8 6.23-12.58 3.03-2.45 5.33-3.22 12.98-4.36 11.32-1.68 18.34-4.92 23.6-10.9l3.91-4.44h9.69c7.3 0 9.59-.3 9.27-1.24-.27-.84-3.22-1.35-8.96-1.54-7.82-.26-8.5-.44-8.05-2.17.51-1.97 2.16-2.4 13.77-3.58 7.56-.77 9.48-1.31 9.48-2.66 0-1.04-11.95-.53-18.7.8l-2.76.55-.14-6.07c-.26-11.38-6.67-20.46-18.28-25.9-7.65-3.6-21-3.73-28.49-.3-5.86 2.68-12.85 9.15-15.55 14.37l-1.91 3.7-2.9-1.67-2.92-1.67 4.94-7.14c2.72-3.93 6.5-8.55 8.39-10.28 2.42-2.2 3.64-4.33 4.1-7.18.8-5.07 2.81-7.25 5.7-6.19 1.18.43 10.37.63 20.41.45 19.13-.36 24.6.33 33.14 4.14 2.47 1.1 7.55 2.32 11.29 2.7 3.73.38 7.29 1.2 7.89 1.8.6.6 1.47 3.78 1.91 7.05.51 3.7 2.36 9.02 4.9 14.06 5.7 11.29 8.91 24.43 10.39 42.45.4 4.9.32 5.08-4.85 10.1-9.58 9.3-25.18 15.21-45.64 17.31-10.9 1.12-12.5 1.12-24 .02zm-34.75-9.56a76.95 76.95 0 01-8.73-6.05c-4.17-3.41-4.25-3.59-4.23-9.64.03-7.47 1.45-17.87 3.66-26.64.9-3.56 1.63-6.99 1.64-7.6 0-.73 1.47-.48 4.08.69 3.68 1.65 4.14 2.25 4.74 6.31.83 5.66 5.1 13.6 9.46 17.56 3.12 2.84 4.02 5.49 3.38 9.94-.18 1.25.04 1.25 1.63.03 1.29-1 1.19-.68-.34 1.05-1.19 1.36-3.81 5.72-5.83 9.7-2.02 3.98-3.96 7.23-4.32 7.23-.36-.01-2.67-1.17-5.14-2.58zm31.76-35.84c-3.57-5.38-10.08 3.7-11.5-4.35-.47-3.4.13-3.16 1.5-3.16.9 0 .7.88 1.25 2.34l2 1.97 3.01-1.22c3.5-1.42.64-3.67 3.94 1.69 1.08 1.75 2.85 2.67 5.16.52 2.96-2.73 3.6-3.78 3.6-1.27 0 2-4.46 5.67-6.78 5.67-.77 0-1.47-.85-2.18-2.19zm11.17-11.18c-4.84-6.16 2.13-14.21 7.58-8.76 3.05 3.04 3.03 5.92-.06 9-3.15 3.16-4.89 3.1-7.52-.24zm-19.92-3.14c-28.98 51.6-14.49 25.8 0 0zm-26.22-.8c-3.59-1.48-3.66-1.6-2.17-3.88 1.33-2.02 1.87-2.2 3.96-1.24 1.73.79 2.42 1.9 2.42 3.93 0 1.56-.12 2.81-.25 2.79-.14-.03-1.92-.75-3.96-1.6z"/><path fill="#aaa477" d="M60.38 118.05c-3.02-.14-8.51-.75-12.21-1.34-5.53-.89-7.17-1.6-9.23-4.06-7.24-8.6 1.25-19.65 16.34-21.25 9.8-1.04 16.77-4.1 23.15-10.19l5.59-5.33h9.64c7.8 0 9.64-.27 9.64-1.46 0-1.16-1.96-1.52-9.53-1.74-8.88-.27-9.44-.4-8.23-2.04.93-1.25 3.69-2.03 9.77-2.75 11.4-1.35 12.98-1.78 12.98-3.48 0-1.53.34-1.54-14.6.35l-6.12.78-.53-5.86C86 48.12 79.6 39.3 68.41 34.07c-7.65-3.6-21-3.73-28.49-.3-5.88 2.7-12.85 9.15-15.58 14.42-1.9 3.69-1.98 3.73-4.4 2.14-1.36-.9-2.48-1.82-2.48-2.06 0-1.38 7.46-11.72 11.34-15.7 3.07-3.17 4.78-5.9 5.22-8.4 1.14-6.33 2.4-7.05 9.94-5.63 4.54.85 7.8.93 10.72.25 2.31-.53 9.82-.78 16.68-.55 10.94.36 13.46.8 20.46 3.48 4.4 1.68 10.67 3.31 13.95 3.61 6.94.64 8.5 2.11 8.5 8 0 2.66 1.65 7.49 5 14.7 5.98 12.88 8.83 23.9 9.65 37.4l.6 10.03-3.26 3.72c-10.74 12.23-38.4 20.15-65.88 18.87zm-39.42-9.94a63.03 63.03 0 01-9.37-6.08L7.2 98.48l.63-9.63c.88-13.54 4.5-30.94 6.4-30.93.4 0 2.19.9 3.97 1.98 2.17 1.33 3.25 2.75 3.25 4.31 0 4.85 3.33 11.88 8.09 17.09 4.02 4.4 4.88 6 4.88 9.07 0 3.4.16 3.6 1.75 2.38 1.09-.83.94-.4-.4 1.13-1.18 1.36-3.8 5.6-5.83 9.45a237.04 237.04 0 01-3.84 7.14c-.09.09-2.4-.98-5.15-2.36zm30.86-34.7c-1.5-2.29-1.8-2.37-3.74-1-1.16.81-2.84 1.48-3.73 1.48-1.86 0-3.93-3.97-3.93-7.53 0-3.26 2.76-3.22 3.58.04.72 2.86 1.64 3.13 3.4 1 1.88-2.26 4.54-1.8 5.81 1 1.38 3.02 2.3 3.12 4.68.5 2.05-2.27 4.49-2.64 4.49-.7 0 1.6-6.14 7.68-7.76 7.68-.65 0-1.91-1.11-2.8-2.47zm12.72-11.25c-4.5-3.84-2.28-11.23 3.38-11.23 5.3 0 6.8 8.22 2.1 11.5-2.66 1.87-2.99 1.85-5.48-.27zm-27.76-4.8c-1.98-1.98-2.4-3.13-1.87-5.22.97-3.85 2.38-5.2 5.43-5.2 3.51 0 5.07 1.69 5.07 5.5 0 6.17-4.7 8.85-8.63 4.92zm-19.07-.1c-3.58-1.48-3.85-2.12-1.95-4.72 1.23-1.68 1.4-1.68 3.6.1 1.38 1.12 2.15 2.67 1.94 3.9-.32 1.9-.57 1.95-3.59.71z"/><path fill="#898898" d="M60.38 118.05c-3.02-.14-8.51-.75-12.21-1.34-5.53-.89-7.17-1.6-9.23-4.06-7.24-8.6 1.25-19.65 16.34-21.25 9.8-1.04 16.77-4.1 23.15-10.19l5.59-5.33h9.64c7.8 0 9.64-.27 9.64-1.46 0-1.16-1.96-1.52-9.53-1.74-8.88-.27-9.44-.4-8.23-2.04.93-1.25 3.69-2.03 9.77-2.75 11.4-1.35 12.98-1.78 12.98-3.48 0-1.53.34-1.54-14.6.35l-6.12.78-.53-5.86C86 48.12 79.6 39.3 68.41 34.07c-7.65-3.6-21-3.73-28.49-.3-5.88 2.7-12.85 9.15-15.58 14.42-1.9 3.69-1.98 3.73-4.4 2.14-1.36-.9-2.48-1.82-2.48-2.06 0-1.38 7.46-11.72 11.34-15.7 3.07-3.17 4.78-5.9 5.22-8.4 1.14-6.33 2.4-7.05 9.94-5.63 4.54.85 7.8.93 10.72.25 2.31-.53 9.82-.78 16.68-.55 10.94.36 13.46.8 20.46 3.48 4.4 1.68 10.67 3.31 13.95 3.61 6.94.64 8.5 2.11 8.5 8 0 2.66 1.65 7.49 5 14.7 5.98 12.88 8.83 23.9 9.65 37.4l.6 10.03-3.26 3.72c-10.74 12.23-38.4 20.15-65.88 18.87zm-39.42-9.9a65.63 65.63 0 01-9.37-6.12L7.2 98.48l.63-9.63c.88-13.54 4.5-30.94 6.4-30.93.4 0 2.19.9 3.97 1.98 2.17 1.33 3.25 2.75 3.25 4.31 0 4.85 3.33 11.88 8.09 17.09 4.02 4.4 4.88 6 4.88 9.07 0 3.36.16 3.6 1.67 2.35.92-.75.11.68-1.79 3.18a55.85 55.85 0 00-5.69 9.73c-1.23 2.85-2.33 5.17-2.45 5.14-.12-.02-2.47-1.2-5.21-2.61zm30.86-34.74c-1.5-2.29-1.8-2.37-3.74-1-1.16.81-2.84 1.48-3.73 1.48-1.86 0-3.93-3.97-3.93-7.53 0-3.26 2.76-3.22 3.58.04.72 2.86 1.64 3.13 3.4 1 1.88-2.26 4.54-1.8 5.81 1 1.38 3.02 2.3 3.12 4.68.5 2.05-2.27 4.49-2.64 4.49-.7 0 1.6-6.14 7.68-7.76 7.68-.65 0-1.91-1.11-2.8-2.47zm12.72-11.25c-4.5-3.84-2.28-11.23 3.38-11.23 5.3 0 6.8 8.22 2.1 11.5-2.66 1.87-2.99 1.85-5.48-.27zm-27.76-4.8c-1.98-1.98-2.4-3.13-1.87-5.22.97-3.85 2.38-5.2 5.43-5.2 3.51 0 5.07 1.69 5.07 5.5 0 6.17-4.7 8.85-8.63 4.92zm-19.07-.1c-3.58-1.48-3.85-2.12-1.95-4.72 1.23-1.68 1.4-1.68 3.6.1 1.38 1.12 2.15 2.67 1.94 3.9-.32 1.9-.57 1.95-3.59.71z"/><path fill="#d8a81c" d="M50.9 117.1c-7.44-1.02-10.6-2.43-12.52-5.58-3.16-5.2-2.58-9.08 2.03-13.55 4.77-4.63 7.13-5.58 17.1-6.86 9.36-1.2 15.77-4.3 21.75-10.48l4.58-4.73 10.31-.01c7.8 0 10.21-.3 9.9-1.25-.28-.85-3.34-1.34-9.56-1.54-7-.22-9.16-.61-9.16-1.66 0-1.51 2.34-2.14 11.48-3.08 9.74-1 14.58-3.04 11.6-4.87-.48-.3-5.36.04-10.85.74l-9.99 1.3-.49-6.08c-.85-10.7-7.54-20.29-17.55-25.2-4.97-2.44-6.8-2.77-15.14-2.78-8.18 0-10.25.36-15.12 2.65-6.2 2.9-12.88 9.13-14.82 13.81-1.41 3.41-1.85 3.57-4.55 1.57-1.9-1.42-1.9-1.51.4-5.92 1.3-2.46 4.82-7 7.85-10.1 4.26-4.36 5.6-6.5 6.01-9.54.78-5.77 2.07-6.43 10.03-5.13 4.4.72 8.09.78 10.7.17 10.14-2.37 30.78-.45 38.61 3.6 1.7.88 6.05 2 9.68 2.52 10 1.4 9.8 1.25 10.56 7.65.43 3.54 2.13 8.55 4.47 13.2 6.64 13.12 11.04 30.7 11.04 44.07 0 5.59-.2 6.09-4.24 10.1-7.47 7.44-20.44 13.16-36.54 16.14-7.74 1.43-29.66 1.92-37.57.84zm-30.64-9.45a55.66 55.66 0 01-9.33-6.42l-3.72-3.4.7-9.73c.72-10.06 3.93-26.95 5.4-28.42.99-.99 6.28.84 7.36 2.54.42.65.77 2.31.8 3.68.05 3.96 3.34 10.2 8.34 15.83 3.64 4.1 4.62 5.95 4.62 8.72 0 1.93.42 3.26.94 2.94.51-.32-.8 2.02-2.92 5.19-2.11 3.17-4.16 7-4.54 8.51-.38 1.51-.99 2.93-1.35 3.16-.37.23-3.2-.94-6.3-2.6zM51.82 73.4c-1.5-2.29-1.8-2.37-3.74-1-1.16.81-2.84 1.48-3.73 1.48-1.86 0-3.93-3.97-3.93-7.53 0-3.26 2.76-3.22 3.58.04.72 2.86 1.64 3.13 3.4 1 1.88-2.26 4.54-1.8 5.81 1 1.38 3.02 2.3 3.12 4.68.5 2.05-2.27 4.49-2.64 4.49-.7 0 1.6-6.14 7.68-7.76 7.68-.65 0-1.91-1.11-2.8-2.47zm12.41-10.87c-4.5-3.84-3.15-12.35 3.52-11.96 5.7.33 7.5 8.54 2.8 11.83-2.67 1.86-3.83 2.25-6.32.13zm-27.45-5.18c-1.98-1.98-2.4-3.13-1.87-5.22.97-3.85 2.38-5.2 5.43-5.2 3.51 0 5.07 1.69 5.07 5.5 0 6.17-4.7 8.85-8.63 4.92zm-19.53-1c-2.65-1.43-2.95-4.47-.43-4.4 1.92.06 4.64 2.59 4.64 4.32 0 1.98-.7 2-4.21.09z"/><path fill="#837c91" d="M50.9 117.1c-7.44-1.02-10.6-2.43-12.52-5.58-3.16-5.2-2.58-9.08 2.03-13.55 4.77-4.63 7.13-5.58 17.1-6.86 9.36-1.2 15.77-4.3 21.75-10.48l4.58-4.73 10.31-.01c7.8 0 10.21-.3 9.9-1.25-.28-.85-3.34-1.34-9.56-1.54-7-.22-9.16-.61-9.16-1.66 0-1.51 2.34-2.14 11.48-3.08 9.74-1 14.58-3.04 11.6-4.87-.48-.3-5.36.04-10.85.74l-9.99 1.3-.49-6.08c-.85-10.7-7.54-20.29-17.55-25.2-4.97-2.44-6.8-2.77-15.14-2.78-8.18 0-10.25.36-15.12 2.65-6.2 2.9-12.88 9.13-14.82 13.81-1.41 3.41-1.85 3.57-4.55 1.57-1.9-1.42-1.9-1.51.4-5.92 1.3-2.46 4.82-7 7.85-10.1 4.26-4.36 5.6-6.5 6.01-9.54.78-5.77 2.07-6.43 10.03-5.13 4.4.72 8.09.78 10.7.17 10.14-2.37 30.78-.45 38.61 3.6 1.7.88 6.05 2 9.68 2.52 10 1.4 9.8 1.25 10.56 7.65.43 3.54 2.13 8.55 4.47 13.2 6.64 13.12 11.04 30.7 11.04 44.07 0 5.59-.2 6.09-4.24 10.1-7.47 7.44-20.44 13.16-36.54 16.14-7.74 1.43-29.66 1.92-37.57.84zm-30.64-9.45a55.66 55.66 0 01-9.33-6.42l-3.72-3.4.7-9.73c.72-10.06 3.93-26.95 5.4-28.42.99-.99 6.28.84 7.36 2.54.42.65.77 2.31.8 3.68.05 3.96 3.34 10.2 8.34 15.83 3.64 4.1 4.62 5.95 4.62 8.72 0 1.93.42 3.26.94 2.94.51-.32-.8 2.02-2.92 5.19-2.11 3.17-4.16 7-4.54 8.51-.38 1.51-.99 2.93-1.35 3.16-.37.23-3.2-.94-6.3-2.6zM52.15 73l-2.47-2.93-2.05 2.05c-1.13 1.12-2.72 1.79-3.53 1.48-2.14-.82-4.22-7.56-2.78-9 .82-.81 1.43-.26 2.32 2.1 1.4 3.7 2.27 3.97 4 1.2 1.75-2.8 3.45-2.48 5.26 1 1.83 3.54 1.95 3.57 4.72 1 2.18-2.04 4.76-2.67 4.76-1.18 0 .8-2.64 3.37-6.13 6-1.37 1.02-2.03.75-4.1-1.72zm11.43-11.29c-1.82-1.82-1.45-7.25.62-9.13 2.15-1.94 5.27-2.14 6.96-.45 1.7 1.7 1.48 7.36-.37 9.21-1.86 1.86-5.53 2.05-7.21.37zm-26.94-4.04c-3.15-3.84-.73-10.73 3.78-10.73 4.57 0 6.75 7.09 3.16 10.33-2.16 1.95-5.5 2.15-6.94.4zm-19.39-1.3c-2.65-1.44-2.95-4.48-.43-4.4 1.92.05 4.64 2.58 4.64 4.31 0 1.98-.7 2-4.21.09z"/><path fill="#7e8190" d="M49.92 116.74c-8.47-1.42-9.5-1.88-11.52-5.2-3.34-5.47-2.65-8.8 2.9-14 3.18-2.96 6.05-4.72 8.24-5.04 18.05-2.62 22.9-4.54 29.9-11.83l4.6-4.79h10.21c7.73 0 10.11-.3 9.8-1.24-.28-.85-3.34-1.34-9.56-1.54-12.95-.4-12.12-3.33 1.32-4.64 10.57-1.02 15.71-3.05 12.6-4.97-.48-.3-5.42.04-10.97.76l-10.11 1.3v-4.63c0-10.73-7.14-21.44-17.76-26.66-5.09-2.5-6.76-2.8-15.68-2.8-9.57 0-10.24.15-16.46 3.58-5.87 3.24-9.25 6.56-13.98 13.72-1.36 2.07-1.67 2.14-3.5.8l-1.99-1.48 2-3.78c1.1-2.07 4.62-6.58 7.83-10.02 4.54-4.88 5.94-7.14 6.36-10.26.8-5.88 2.08-6.55 10.05-5.18 4.57.78 7.97.84 10.7.18 10.26-2.5 30.58-.52 39.2 3.83 2.04 1.03 6.71 2.2 10.39 2.58 3.67.38 7.1 1.22 7.6 1.87.52.65 1.26 3.42 1.66 6.17.4 2.74 2.7 9.03 5.13 13.97 5.4 11 9.26 25.8 10.05 38.46l.6 9.51-4.46 4.46c-7.9 7.9-21.44 13.73-38.24 16.46-9.6 1.57-28.73 1.78-36.91.4zm-29.96-9.37c-3.3-1.87-7.54-5-9.43-6.97l-3.45-3.57 1.19-11.72c1.14-11.27 3.68-23.86 5.13-25.46.38-.42 2.1-.27 3.81.33 2.67.93 3.27 1.79 4.18 6.05 1.43 6.65 3.47 10.44 8.68 16.05 3.47 3.74 4.36 5.43 4.36 8.3 0 2.3.39 3.35 1.07 2.93.6-.37-.52 1.55-2.46 4.25a59.6 59.6 0 00-5.31 9.06l-1.78 4.15zM52.15 73l-2.47-2.93-2.05 2.05c-1.13 1.12-2.72 1.79-3.53 1.48-2.14-.82-4.22-7.56-2.78-9 .82-.81 1.43-.26 2.32 2.1 1.4 3.7 2.27 3.97 4 1.2 1.75-2.8 3.45-2.48 5.26 1 1.83 3.54 1.95 3.57 4.72 1 2.18-2.04 4.76-2.67 4.76-1.18 0 .8-2.64 3.37-6.13 6-1.37 1.02-2.03.75-4.1-1.72zm11.43-11.29c-1.82-1.82-1.45-7.25.62-9.13 2.15-1.94 5.27-2.14 6.96-.45 1.7 1.7 1.48 7.36-.37 9.21-1.86 1.86-5.54 2.05-7.21.37zm-26.94-4.04c-3.15-3.84-.73-10.73 3.78-10.73 4.57 0 6.75 7.09 3.16 10.33-2.16 1.95-5.5 2.15-6.94.4zm-18.93-.97c-2.36-1.14-3.13-4.8-1-4.74 2.01.05 4.75 2.55 4.75 4.32 0 1.87-.6 1.94-3.75.42z"/><path fill="#797489" d="M49.92 116.74c-8.47-1.42-9.5-1.88-11.52-5.2-3.34-5.47-2.65-8.8 2.9-14 3.18-2.96 6.05-4.72 8.24-5.04 17.75-2.57 22.85-4.53 29.45-11.33l4.17-4.29h7.45c9.28 0 13.69-.84 13.69-2.62 0-1.07-2.1-1.37-9.48-1.37-9.17 0-11.52-.86-7.74-2.84.96-.5 5.32-1.23 9.7-1.63 9.42-.87 12.5-1.88 12.5-4.12 0-1.38-.71-1.56-4.23-1.08-2.34.32-7.28.9-10.98 1.27l-6.74.7v-4.46c0-10.54-7.22-21.29-17.76-26.47-5.09-2.5-6.76-2.8-15.68-2.8-9.57 0-10.24.15-16.46 3.58-5.84 3.22-8.87 6.18-13.98 13.64-1.36 1.98-1.68 2.05-3.46.7-1.95-1.47-1.95-1.5 0-5.17 1.08-2.02 4.59-6.5 7.8-9.93 4.54-4.88 5.94-7.14 6.36-10.26.8-5.88 2.08-6.55 10.05-5.18 4.57.78 7.97.84 10.7.18 10.26-2.5 30.58-.52 39.2 3.83 2.04 1.03 6.71 2.2 10.39 2.58 3.67.38 7.1 1.22 7.6 1.87.52.65 1.26 3.42 1.66 6.17.4 2.74 2.7 9.03 5.13 13.97 5.4 11 9.26 25.8 10.05 38.46l.6 9.51-4.46 4.46c-7.9 7.9-21.44 13.73-38.24 16.46-9.6 1.57-28.73 1.78-36.91.4zm-29.96-9.37c-3.3-1.87-7.54-5-9.43-6.97l-3.45-3.57 1.19-11.72c1.13-11.2 3.68-23.86 5.11-25.44.37-.4 2.1-.2 3.84.46 2.68 1.01 3.32 1.92 4.2 6.03 1.4 6.56 3.5 10.44 8.3 15.43 5.67 5.87 6.43 11.09 2.49 16.97a61.94 61.94 0 00-4.55 8.21l-1.71 4zM52.15 73l-2.47-2.93-2.05 2.05c-1.13 1.12-2.72 1.79-3.53 1.48-2.14-.82-4.22-7.56-2.78-9 .82-.81 1.43-.26 2.32 2.1 1.4 3.7 2.27 3.97 4 1.2 1.75-2.8 3.45-2.48 5.26 1 1.83 3.54 1.95 3.57 4.72 1 2.18-2.04 4.76-2.67 4.76-1.18 0 .8-2.64 3.37-6.13 6-1.37 1.02-2.03.75-4.1-1.72zm11.43-11.29c-1.82-1.82-1.45-7.25.62-9.13 2.15-1.94 5.27-2.14 6.96-.45 1.7 1.7 1.48 7.36-.37 9.21-1.86 1.86-5.54 2.05-7.21.37zm-26.94-4.04c-3.15-3.84-.73-10.73 3.78-10.73 4.57 0 6.75 7.09 3.16 10.33-2.16 1.95-5.5 2.15-6.94.4zm-18.93-.97c-1.85-.9-3.31-4.77-1.8-4.77 1.99 0 5.55 2.67 5.55 4.15 0 2.07-.55 2.16-3.75.62z"/><path fill="#716b81" d="M50.4 116.67c-8.16-1.12-10.5-2.32-12.43-6.4-2.25-4.73-1.92-6.93 1.6-10.95 4.32-4.91 7.93-6.55 16.75-7.61 9.36-1.12 18.68-5.44 23.25-10.78l3.3-3.85 10.63-.35c5.85-.19 10.94-.65 11.32-1.03 1.9-1.9-1.36-2.81-10.06-2.81-13.8 0-12.42-2.99 2.05-4.42 8.55-.84 13.71-2.37 13.19-3.9-.46-1.33-3.98-1.38-14.79-.25l-7.59.8-.53-6.56C85.51 38.87 63.9 26.18 42.66 32.5c-6.44 1.91-14.33 8.1-17.73 13.9-2.34 3.98-2.83 4.34-4.55 3.27-1.05-.66-1.92-1.67-1.92-2.23 0-1.75 5.06-8.72 10.64-14.64 4.32-4.59 5.33-6.32 5.33-9.1 0-5.28 1.76-6.15 9.4-4.71 4.8.9 7.71.93 11.54.11 6.35-1.36 19.02-1.42 25.9-.11 2.86.54 7.97 2.14 11.36 3.55a51.06 51.06 0 0012.17 3.14c3.29.32 6.49.97 7.1 1.45.6.48 1.4 3.4 1.77 6.48.42 3.58 1.9 7.84 4.06 11.72 6.35 11.4 11.5 31.8 11.51 45.65 0 4.2-.4 4.98-4.75 9.05-6.19 5.8-11.93 9.08-21.44 12.25-14.7 4.92-35.91 6.69-52.65 4.4zm-30.94-9.91a49.83 49.83 0 01-8.77-6.2L7.42 97.4l.62-8.5c.7-9.47 4.1-28.02 5.38-29.31 1.08-1.1 7.04 2.01 7.04 3.67 0 4.7 3.49 12.02 8.16 17.13 4.32 4.72 5.19 6.33 5.55 10.28.38 3.98 0 5.3-2.44 8.68a43.5 43.5 0 00-4.2 7.24c-.73 1.78-1.6 3.23-1.95 3.22-.35 0-3.1-1.38-6.12-3.04zM52.15 73l-2.47-2.93-2.05 2.05c-1.13 1.12-2.72 1.79-3.53 1.48-2.14-.82-4.22-7.56-2.78-9 .82-.81 1.43-.26 2.32 2.1 1.4 3.7 2.27 3.97 4 1.2 1.75-2.8 3.45-2.48 5.26 1 1.83 3.54 1.95 3.57 4.72 1 2.18-2.04 4.76-2.67 4.76-1.18 0 .8-2.64 3.37-6.13 6-1.37 1.02-2.03.75-4.1-1.72zm11.43-11.29c-1.82-1.82-1.45-7.25.62-9.13 2.15-1.94 5.27-2.14 6.96-.45 1.7 1.7 1.48 7.36-.37 9.21-1.86 1.86-5.54 2.05-7.21.37zm-26.94-4.04c-3.15-3.84-.73-10.73 3.78-10.73 4.57 0 6.75 7.09 3.16 10.33-2.16 1.95-5.5 2.15-6.94.4zm-19.43-1.44c-1.47-.38-2.65-4.3-1.3-4.3 1.68 0 5.55 2.55 5.55 3.65 0 1.35-1 1.5-4.25.65z"/><path fill="#af8a1f" d="M57.89 117.3c-.55-.19-4.07-.64-7.82-1-8.19-.8-12.37-3.81-13.28-9.57-.49-3.05-.1-4.14 2.67-7.29 4.13-4.7 7.08-6.18 13.93-7.04 12.73-1.58 20.8-5.17 26.69-11.87l3.14-3.58 10.77-.28c9.26-.25 10.83-.53 11.11-2 .29-1.5-.85-1.74-9.69-2-13.41-.38-12.45-2.36 2.01-4.11 11.24-1.37 12.87-1.92 12.87-4.35 0-1.66-.73-1.65-17.22.3l-5.74.67-.01-5.38c-.02-10.82-7.1-20.67-18.8-26.15-12.18-5.7-27.36-3.48-37.52 5.46-2.55 2.24-5.53 5.82-6.61 7.95-1.74 3.41-2.2 3.73-3.87 2.68-1.86-1.16-1.86-1.27.14-5.2 1.12-2.2 4.46-6.53 7.4-9.62 4.28-4.48 5.56-6.6 6.27-10.4.97-5.23 2.52-6.84 5.59-5.8 1.1.36 11.43.7 22.96.73l20.96.06 8.42 3.24c4.87 1.87 10.27 3.23 12.8 3.23 6.64 0 8.22 1.25 8.22 6.55 0 3.26 1.37 7.47 5 15.45 5.54 12.1 8.63 23.43 9.51 34.86.32 4.13.79 8.53 1.04 9.76.67 3.3-6.2 10.27-14.36 14.56-8.48 4.45-21 8.11-32.63 9.54-8.45 1.03-21.74 1.37-23.95.6zM18.9 106.26c-9.64-5.8-10.42-6.84-10.42-13.83C8.5 82 12.63 59.9 14.58 59.9c2.25 0 5.88 2.55 5.88 4.12 0 4.27 4.34 13.03 8.66 17.47 3.98 4.1 4.58 5.28 4.8 9.53.22 4.04-.23 5.54-2.7 8.95-1.63 2.25-3.42 5.39-3.97 6.97-.55 1.58-1.32 2.87-1.7 2.87-.4 0-3.39-1.6-6.65-3.56zM52.15 73l-2.47-2.93-2.05 2.05c-1.13 1.12-2.72 1.79-3.53 1.48-2.14-.82-4.22-7.56-2.78-9 .82-.81 1.43-.26 2.32 2.1 1.4 3.7 2.27 3.97 4 1.2 1.75-2.8 3.45-2.48 5.26 1 1.83 3.54 1.95 3.57 4.72 1 2.18-2.04 4.76-2.67 4.76-1.18 0 .8-2.64 3.37-6.13 6-1.37 1.02-2.03.75-4.1-1.72zm11.43-11.29c-1.82-1.82-1.45-7.25.62-9.13 2.15-1.94 5.27-2.14 6.96-.45 1.7 1.7 1.48 7.36-.37 9.21-1.86 1.86-5.54 2.05-7.21.37zm-26.94-4.04c-3.15-3.84-.73-10.73 3.78-10.73 4.57 0 6.75 7.09 3.16 10.33-2.16 1.95-5.5 2.15-6.94.4zm-19.43-1.44c-1.91-.5-2.12-1.17-.93-3.04.6-.95 1.28-.88 3 .32 1.21.85 1.95 1.97 1.63 2.48-.6.97-.84.99-3.7.24z"/><path fill="#6b657b" d="M57.89 117.3c-.55-.19-4.07-.64-7.82-1-8.19-.8-12.37-3.81-13.28-9.57-.49-3.05-.1-4.14 2.67-7.29 4.13-4.7 7.08-6.18 13.93-7.04 12.73-1.58 20.8-5.17 26.69-11.87l3.14-3.58 10.77-.28c9.26-.25 10.83-.53 11.11-2 .29-1.5-.85-1.74-9.69-2-13.41-.38-12.45-2.36 2.01-4.11 11.24-1.37 12.87-1.92 12.87-4.35 0-1.66-.73-1.65-17.22.3l-5.74.67-.01-5.38c-.02-10.82-7.1-20.67-18.8-26.15-12.18-5.7-27.36-3.48-37.52 5.46-2.55 2.24-5.53 5.82-6.61 7.95-1.74 3.41-2.2 3.73-3.87 2.68-1.86-1.16-1.86-1.27.14-5.2 1.12-2.2 4.46-6.53 7.4-9.62 4.28-4.48 5.56-6.6 6.27-10.4.97-5.23 2.52-6.84 5.59-5.8 1.1.36 11.43.7 22.96.73l20.96.06 8.42 3.24c4.87 1.87 10.27 3.23 12.8 3.23 6.64 0 8.22 1.25 8.22 6.55 0 3.26 1.37 7.47 5 15.45 5.54 12.1 8.63 23.43 9.51 34.86.32 4.13.79 8.53 1.04 9.76.67 3.3-6.2 10.27-14.36 14.56-8.48 4.45-21 8.11-32.63 9.54-8.45 1.03-21.74 1.37-23.95.6zM18.9 106.26c-9.64-5.8-10.42-6.84-10.42-13.83C8.5 82 12.63 59.9 14.58 59.9c2.25 0 5.88 2.55 5.88 4.12 0 4.27 4.34 13.03 8.66 17.47 3.98 4.1 4.58 5.28 4.8 9.53.22 4.04-.23 5.54-2.7 8.95-1.63 2.25-3.42 5.39-3.97 6.97-.55 1.58-1.32 2.87-1.7 2.87-.4 0-3.39-1.6-6.65-3.56zM51.81 72.4l-1.62-2.48-2.53 1.98c-3.43 2.7-3.8 2.58-5.63-2.02-1.97-4.91-1.97-4.97-.11-4.97.82 0 1.5.56 1.5 1.24.02.69.44 1.91.95 2.72.79 1.24 1.36 1.08 3.62-1 1.81-1.66 2.83-2.06 3.13-1.23.24.68 1.26 2.25 2.27 3.5l1.83 2.25 2.4-2.24c2.61-2.46 3.76-2.82 3.76-1.2 0 1.35-5.13 5.86-6.71 5.9-.68.02-1.96-1.08-2.86-2.45zm11.6-11.42c-1.45-2.72-1.28-5.25.52-7.83 2.92-4.16 8.43-1.75 8.43 3.69 0 5.17-6.73 8.28-8.95 4.14zm-26.78-3.26c-3.04-3.04-.2-10.78 3.96-10.78 2.06 0 4.82 3.21 4.82 5.6 0 4.85-5.73 8.23-8.78 5.18zM17.2 56.23c-1.91-.5-2.12-1.17-.93-3.04.6-.95 1.28-.88 3 .32 1.21.85 1.95 1.97 1.63 2.48-.6.97-.84.99-3.7.24z"/><path fill="#8f7322" d="M51.81 72.4l-1.62-2.48-2.53 1.98c-3.43 2.7-3.8 2.58-5.63-2.02-1.97-4.91-1.97-4.97-.11-4.97.82 0 1.5.56 1.5 1.24.02.69.44 1.91.95 2.72.79 1.24 1.36 1.08 3.62-1 1.81-1.66 2.83-2.06 3.13-1.23.24.68 1.26 2.25 2.27 3.5l1.83 2.25 2.4-2.24c2.61-2.46 3.76-2.82 3.76-1.2 0 1.35-5.13 5.86-6.71 5.9-.68.02-1.96-1.08-2.86-2.45zm11.6-11.42c-1.45-2.72-1.28-5.25.52-7.83 2.92-4.16 8.43-1.75 8.43 3.69 0 5.17-6.73 8.28-8.95 4.14zm-26.78-3.26c-3.04-3.04-.2-10.78 3.96-10.78 2.06 0 4.82 3.21 4.82 5.6 0 4.85-5.73 8.23-8.78 5.18z"/><path fill="#675528" d="M52.22 72.4c-1.4-3.05-2.52-3.13-5.41-.41l-2.09 1.3-1.8-1.74c-.91-1.4-1.47-3.57-1.24-4.84.38-2.13.51-2.06 1.67.94.7 1.78 1.53 3.24 1.87 3.24.34 0 1.6-1.23 2.8-2.73l2.12-1.62 2.28 2.68 2.24 3.79 2.85-2.73c3.8-3.64 5.01-2.19 1.36 1.62-3.48 3.64-5.16 3.76-6.65.5zm11.81-11.32c-2.22-2.45-2.08-5.72.34-8.15 2.48-2.48 4.2-2.53 6.34-.17 2.07 2.29 2.1 5.07.1 7.93-1.9 2.7-4.56 2.85-6.78.4zM37.05 57.4c-2.2-2.2-2.04-6.77.3-8.9 2.54-2.3 5.15-1.67 7.03 1.7 1.37 2.45 1.37 3 0 5.47-1.8 3.24-5.05 4-7.33 1.73z"/><path fill="#504629" d="M52.17 71.86l-2.38-3.04-1.85 2.03c-1.01 1.12-2.37 2.04-3.02 2.04-1.37 0-3.54-4.3-3.42-6.78.05-.98.68-.33 1.5 1.54 1.68 3.85 2.04 3.92 5.23 1 1.68-1.54 2.58-1.86 2.89-1.01.24.68 1.2 2.18 2.15 3.35l1.71 2.11 3.2-2.69c3.6-3.02 4.45-1.99.95 1.16-3.8 3.42-4.49 3.45-6.96.29zm11.68-11.34c-2.82-4.31.67-10.62 4.97-8.97 3.71 1.43 4.53 6.38 1.54 9.36-2.64 2.64-4.6 2.52-6.5-.39zm-26.77-3.43c-2.22-2.45-2.08-5.73.35-8.15 2.51-2.52 3.48-2.5 6.07.08 2.36 2.36 1.96 6.51-.83 8.65-2.24 1.71-3.65 1.57-5.59-.58z"/><path fill="#423c2b" d="M52.36 71.84l-2.19-3.07-2.2 2.06c-1.2 1.13-2.65 2.06-3.21 2.06-1.24 0-3.37-4.43-3.26-6.78.05-.98.68-.33 1.5 1.54 1.68 3.85 2.04 3.92 5.23 1 1.68-1.54 2.58-1.86 2.89-1.01.24.68 1.26 2.25 2.27 3.49l1.83 2.26 2.58-2.42c1.42-1.33 2.56-2 2.53-1.5-.03.51-1.25 1.4-2.83 2.64l-2.86 2.26zM63.7 60.3c-1.53-2.34-1.56-2.88-.24-5.24 1.8-3.22 5.77-4.02 7.59-1.54 1.85 2.54 1.61 5.08-.7 7.4-2.69 2.68-4.6 2.5-6.65-.62zm-26.63-3.2c-3.33-3.69-1.29-9.16 3.4-9.16 3.56 0 5.2 3.08 3.74 6.96-1.6 4.28-4.46 5.15-7.14 2.2z"/><path fill="#2e2e2d" d="M52.38 71.64c-.99-2.02-.95-2.07.32-.5 1.83 2.27 2.54 2.2 5.62-.5l2.56-2.24-2.42 2.74c-2.94 3.34-4.64 3.48-6.08.5zm-8.36.42c-.29-.46.12-.83.9-.83.77 0 1.17.37.89.83-.29.46-.69.83-.9.83-.2 0-.61-.37-.9-.83zm-1.98-3.7c-.96-2.51-.68-3.16.5-1.13.58 1 .85 2.03.59 2.28-.26.26-.75-.26-1.09-1.15zm5.37 1.07c0-1.02 2.91-2.47 3.39-1.7.32.52-.32 1.17-1.4 1.46-1.1.29-2 .4-2 .24zm17.6-7.7c-1.93-1.08-2.22-6.82-.44-8.6 2.12-2.12 5.76-1.42 6.8 1.3 1.86 4.92-2.21 9.62-6.36 7.3zM37.5 57c-2.36-2.35-2.45-2.93-1.07-6.56.83-2.2 1.52-2.57 4.24-2.3 3.05.29 3.24.54 3.24 4.18 0 2.87-.56 4.24-2.17 5.31-1.96 1.3-2.38 1.24-4.24-.63z"/></svg>