<?xml version="1.0" encoding="UTF-8" standalone="no"?>
<svg
   xmlns:dc="http://purl.org/dc/elements/1.1/"
   xmlns:cc="http://creativecommons.org/ns#"
   xmlns:rdf="http://www.w3.org/1999/02/22-rdf-syntax-ns#"
   xmlns:svg="http://www.w3.org/2000/svg"
   xmlns="http://www.w3.org/2000/svg"
   xmlns:sodipodi="http://sodipodi.sourceforge.net/DTD/sodipodi-0.dtd"
   xmlns:inkscape="http://www.inkscape.org/namespaces/inkscape"
   width="300"
   height="120"
   version="1.1"
   viewBox="0 0 79.375 31.75"
   id="svg901"
   sodipodi:docname="daemon-icon.svg"
   inkscape:version="0.92.4 (5da689c313, 2019-01-14)">
  <defs
     id="defs905" />
  <sodipodi:namedview
     pagecolor="#ffffff"
     bordercolor="#666666"
     borderopacity="1"
     objecttolerance="10"
     gridtolerance="10"
     guidetolerance="10"
     inkscape:pageopacity="0"
     inkscape:pageshadow="2"
     inkscape:window-width="1920"
     inkscape:window-height="1017"
     id="namedview903"
     showgrid="false"
     inkscape:zoom="4.5333333"
     inkscape:cx="150"
     inkscape:cy="60"
     inkscape:window-x="-8"
     inkscape:window-y="-8"
     inkscape:window-maximized="1"
     inkscape:current-layer="g891" />
  <metadata
     id="metadata861">
    <rdf:RDF>
      <cc:Work
         rdf:about="">
        <dc:format>image/svg+xml</dc:format>
        <dc:type
           rdf:resource="http://purl.org/dc/dcmitype/StillImage" />
        <dc:title />
      </cc:Work>
    </rdf:RDF>
  </metadata>
  <g
     transform="translate(0 -265.25)"
     id="g899">
    <g
       transform="matrix(.81418 0 0 .81418 -12.219 168.16)"
       id="g897">
      <g
         transform="translate(-.32497 -2.1808e-6)"
         id="g895">
        <g
           transform="matrix(1.0685 0 0 1.0685 19.323 119.01)"
           id="g881">
          <path
             d="m35 20.516-34-0.516 0.017 2.625c0.017 0.593 0.355 1.188 1.08 1.632l6.907 4.228 6.908 4.227c1.526 0.935 4.145 0.848 5.525 0 1.383-0.845 0.692-1.267 2.073-2.114 1.381-0.844 2.071-0.422 3.454-1.266 1.383-0.848 6.909-4.227 6.909-4.227 0.761-0.466 1.141-1.077 1.143-1.689z"
             fill="#f4900c"
             id="path863" />
          <path
             d="m33.873 18.721s-30.394-1.69-31.776-0.845-1.526 2.447 0 3.382l6.907 4.228 6.908 4.228c1.526 0.935 4.145 0.848 5.525 0 1.383-0.845 0.692-1.267 2.073-2.114 1.381-0.844 2.071-0.422 3.454-1.266 1.383-0.848 6.908-4.228 6.908-4.228 1.526-0.935 1.527-2.451 1e-3 -3.385z"
             fill="#ffac33"
             id="path865" />
          <path
             d="m10.222 24.642 7.071 4.228s1.414 0.844 2.828 0c1.197-0.717 2.121-2.114 2.121-2.114z"
             fill="#ffd983"
             id="path867" />
          <path
             d="m33.739 18.565c-1.941-2.589-26.694-4.412-30.577-0.767-0.784 0.737-2.265 2.22-0.688 4.439 0.688 1.162 2.116 1.919 2.306 1.56 0.443-0.842 1.327-1.578 2.653-1.507-0.075 0.178 0.641 3.207 0.56 3.275-0.925 0.786 0.997 3.518 3.249 2.063 0.561 1.108 3.956 3.843 6.299 0.102 0.466 0.844 5.36 2.128 6.719-1.766-0.011 0.067-8e-3 0.124-0.026 0.196-0.089 0.35 0.722 0.653 1.548 0.363 1.389-0.486 3.395-1.693 3.75-3.018 0.991-0.173 1.734 0.102 2.306 0.858 0.283 0.374 1.254 0.464 1.669-0.025 0.732-0.859 1.933-3.503 0.232-5.773z"
             fill="#77b255"
             id="path869" />
          <path
             d="m31 25.041c0 0.529-0.896 0.959-2 0.959h-22c-1.104 0-2-0.43-2-0.959v-6.551h26z"
             fill="#ffcc4d"
             id="path871" />
          <path
             d="m33.311 19.987c0 2.768-4.586 5.013-10.242 5.013-5.658 0-10.243-2.245-10.243-5.013 0-2.769 4.585-5.013 10.243-5.013 5.656 0 10.242 2.245 10.242 5.013z"
             fill="#be1931"
             id="path873" />
          <path
             d="m35 14.516-34-0.516v2.625h0.017c0.017 0.593 0.355 1.188 1.08 1.632l6.907 4.228 6.908 4.227c1.526 0.935 4.145 0.848 5.525 0 1.383-0.845 0.692-1.267 2.073-2.114 1.381-0.844 2.071-0.422 3.454-1.266 1.383-0.848 6.909-4.227 6.909-4.227 0.761-0.466 1.141-1.077 1.143-1.689v-5e-3z"
             fill="#f4900c"
             id="path875" />
          <path
             d="m33.873 12.721-13.815-8.454c-1.526-0.934-4-0.934-5.527 0l-6.908 4.228c-1.381 0.845-0.691 1.268-2.072 2.113s-2.072 0.422-3.454 1.268c-1.382 0.845-1.526 2.447 0 3.382l13.815 8.455c1.526 0.935 4.145 0.848 5.525 0 1.383-0.845 0.692-1.267 2.073-2.114 1.381-0.844 2.071-0.422 3.454-1.266 1.383-0.848 6.908-4.228 6.908-4.228 1.526-0.934 1.527-2.45 1e-3 -3.384z"
             fill="#ffac33"
             id="path877" />
          <path
             d="m32.85 13.568-14.143-8.455s-1.507-0.791-2.829 0l-6.962 4.162c-1.197 0.715-1.033 1.463-2.23 2.178-1.196 0.716-2.339 0.553-3.536 1.268-1.414 0.847 0 1.693 0 1.693l14.142 8.455s1.414 0.844 2.828 0c1.197-0.717 0.926-1.397 2.121-2.114 1.197-0.717 2.447-0.619 3.644-1.334 1.197-0.714 6.963-4.163 6.963-4.163s1.323-0.901 2e-3 -1.69z"
             fill="#ffd983"
             id="path879" />
        </g>
        <g
           transform="matrix(2 0 0 2 -15.334 -166.03)"
           id="g893">
          <g
             transform="matrix(.71228 0 0 .71228 11.342 43.614)"
             font-family="UniSansBold"
             letter-spacing="0px"
             word-spacing="0px"
             id="g891">
            <g
               aria-label="Sandwich"
               style="font-size:8.60470009px;line-height:1.25;font-variant-ligatures:normal;font-variant-caps:normal;font-variant-numeric:normal;font-feature-settings:normal;fill:#000000;stroke-width:0.21512"
               id="text885">
              <path
                 d="m 38.899189,151.36021 q 0.335584,0 0.593725,-0.15488 0.283955,-0.16349 0.283955,-0.50768 0,-0.17209 -0.08605,-0.28395 -0.09465,-0.12908 -0.258141,-0.20652 -0.154885,-0.086 -0.378607,-0.12907 -0.215117,-0.043 -0.447444,-0.0774 -0.361398,-0.0516 -0.71419,-0.17209 -0.344188,-0.12047 -0.619539,-0.34419 -0.266746,-0.22372 -0.430235,-0.56791 -0.163489,-0.32698 -0.163489,-0.80024 0,-0.0258 0,-0.0516 0.02581,-0.43023 0.223722,-0.75721 0.197908,-0.33558 0.499073,-0.5507 0.309769,-0.22372 0.69698,-0.33559 0.387212,-0.11186 0.800237,-0.11186 0.593725,0 1.127216,0.24954 0.542096,0.24954 0.929308,0.82605 l -1.041169,0.69698 q -0.197908,-0.30116 -0.456049,-0.43884 -0.258141,-0.13767 -0.559306,-0.13767 -0.180698,0 -0.344188,0.0344 -0.163489,0.0344 -0.292559,0.11186 -0.129071,0.0688 -0.206513,0.1893 -0.07744,0.11186 -0.08605,0.26675 v 0.009 q 0,0.1893 0.08605,0.30116 0.09465,0.11187 0.240931,0.18931 0.14628,0.0688 0.335584,0.11186 0.189303,0.0344 0.387211,0.0774 0.395816,0.0774 0.765819,0.19791 0.378606,0.12047 0.662561,0.35279 0.29256,0.22372 0.45605,0.57652 0.146279,0.30977 0.146279,0.75721 0,0.0688 0,0.13768 -0.04302,0.43023 -0.249536,0.75721 -0.206513,0.32698 -0.533491,0.5507 -0.318374,0.22372 -0.722795,0.34419 -0.395816,0.11186 -0.808842,0.11186 -0.593724,0 -1.161634,-0.28396 -0.567911,-0.29256 -0.955122,-0.87767 l 0.955122,-0.7314 q 0.206512,0.32697 0.56791,0.49907 0.361397,0.16349 0.71419,0.17209 0.02581,0 0.04302,0 z"
                 style="font-size:8.60470009px;font-family:UniSansBold;font-variant-ligatures:normal;font-variant-caps:normal;font-variant-numeric:normal;font-feature-settings:normal;fill:#000000;stroke-width:0.21512"
                 id="path4611" />
              <path
                 d="m 41.518111,151.17091 q 0,-0.38721 0.12907,-0.66256 0.137675,-0.27535 0.352793,-0.44745 0.223722,-0.1807 0.507677,-0.25814 0.29256,-0.0861 0.593724,-0.0861 0.395817,0 0.791633,0.13768 v -0.31837 q 0,-0.3528 -0.206513,-0.48187 -0.206513,-0.13767 -0.481863,-0.13767 -0.249536,0 -0.516282,0.12046 -0.258141,0.12047 -0.42163,0.29256 l -0.58512,-0.62814 q 0.344188,-0.39582 0.740004,-0.56791 0.404421,-0.17209 0.869075,-0.1807 0.335583,0 0.645352,0.0947 0.318374,0.0947 0.559306,0.29256 0.249536,0.19791 0.395816,0.49908 0.154885,0.29255 0.154885,0.69698 v 2.71908 q -0.395816,0.14628 -0.834656,0.24093 -0.430235,0.0861 -0.843261,0.0861 -0.946517,0 -1.402566,-0.37861 -0.447444,-0.38721 -0.447444,-1.03256 z m 1.798382,-0.57652 q -0.344188,0 -0.507677,0.15489 -0.154885,0.14628 -0.154885,0.38721 0,0.24093 0.163489,0.38721 0.172094,0.13768 0.533492,0.13768 0.27535,0 0.507677,-0.0602 v -0.90349 q -0.103256,-0.043 -0.249536,-0.0688 -0.14628,-0.0344 -0.29256,-0.0344 z"
                 style="font-size:8.60470009px;font-family:UniSansBold;font-variant-ligatures:normal;font-variant-caps:normal;font-variant-numeric:normal;font-feature-settings:normal;fill:#000000;stroke-width:0.21512"
                 id="path4613" />
              <path
                 d="m 47.518814,147.95275 q 0.378607,0 0.722795,0.0947 0.352792,0.0861 0.619538,0.28396 0.27535,0.1893 0.43884,0.49907 0.163489,0.30977 0.163489,0.74861 v 2.91699 h -1.187449 v -2.87397 q 0,-0.30977 -0.215117,-0.44744 -0.206513,-0.14628 -0.464654,-0.14628 -0.27535,0 -0.490468,0.12046 v 3.34723 h -1.196053 v -4.15607 q 0.370002,-0.1807 0.783028,-0.28395 0.413025,-0.10326 0.826051,-0.10326 z"
                 style="font-size:8.60470009px;font-family:UniSansBold;font-variant-ligatures:normal;font-variant-caps:normal;font-variant-numeric:normal;font-feature-settings:normal;fill:#000000;stroke-width:0.21512"
                 id="path4615" />
              <path
                 d="m 52.084682,152.58208 q -0.352792,0 -0.671166,-0.0774 -0.318374,-0.0774 -0.576515,-0.25814 -0.249536,-0.1807 -0.413026,-0.47326 -0.154884,-0.30117 -0.189303,-0.7314 v -1.57466 q 0,-0.35279 0.137675,-0.62814 0.14628,-0.28396 0.378607,-0.47326 0.232327,-0.19791 0.524887,-0.30117 0.301164,-0.11186 0.610933,-0.11186 0.395816,0 0.7314,0.15489 v -1.69513 h 1.204658 v 5.83399 q -0.413026,0.15488 -0.869075,0.24953 -0.447444,0.0861 -0.869075,0.0861 z m 0.06023,-3.67421 q -0.120466,0 -0.240931,0.0258 -0.180699,0.0516 -0.318374,0.17209 -0.129071,0.11186 -0.154885,0.30117 v 1.74675 q 0.0086,0.19791 0.137675,0.32698 0.129071,0.12046 0.30977,0.17209 0.146279,0.043 0.301164,0.043 0.04302,0 0.08605,-0.009 0.197908,-0.009 0.352793,-0.0861 v -2.58141 q -0.14628,-0.0774 -0.335584,-0.10325 -0.06884,-0.009 -0.137675,-0.009 z"
                 style="font-size:8.60470009px;font-family:UniSansBold;font-variant-ligatures:normal;font-variant-caps:normal;font-variant-numeric:normal;font-feature-settings:normal;fill:#000000;stroke-width:0.21512"
                 id="path4617" />
              <path
                 d="m 56.79804,152.49603 h -1.118611 l -1.350938,-4.45723 h 1.178844 l 0.499073,1.79838 0.137675,1.16163 h 0.01721 l 0.129071,-1.08419 0.56791,-1.87582 h 0.869075 l 0.550701,1.86722 0.12907,1.09279 h 0.01721 l 0.154884,-1.17023 0.464654,-1.78978 h 1.196053 l -1.316519,4.45723 H 57.80479 l -0.370002,-1.60908 -0.137675,-1.21326 h -0.01721 l -0.12907,1.21326 z"
                 style="font-size:8.60470009px;font-family:UniSansBold;font-variant-ligatures:normal;font-variant-caps:normal;font-variant-numeric:normal;font-feature-settings:normal;fill:#000000;stroke-width:0.21512"
                 id="path4619" />
              <path
                 d="m 61.351407,146.24042 q 0.309769,0 0.524886,0.21511 0.215118,0.21512 0.215118,0.52489 0,0.31837 -0.215118,0.53349 -0.215117,0.21512 -0.524886,0.21512 -0.30977,0 -0.524887,-0.21512 -0.206513,-0.21512 -0.206513,-0.53349 0,-0.30977 0.206513,-0.52489 0.215117,-0.21511 0.524887,-0.21511 z m 0.619538,6.25561 h -1.221867 v -4.44863 h 1.221867 z"
                 style="font-size:8.60470009px;font-family:UniSansBold;font-variant-ligatures:normal;font-variant-caps:normal;font-variant-numeric:normal;font-feature-settings:normal;fill:#000000;stroke-width:0.21512"
                 id="path4621" />
              <path
                 d="m 64.561767,152.58208 q -0.335584,0 -0.653957,-0.0947 -0.318374,-0.10326 -0.576515,-0.29256 -0.249537,-0.19791 -0.404421,-0.49047 -0.154885,-0.30116 -0.154885,-0.69698 v -1.4714 q 0,-0.39582 0.154885,-0.68838 0.154884,-0.30116 0.404421,-0.49907 0.258141,-0.19791 0.576515,-0.29256 0.318373,-0.10326 0.653957,-0.10326 0.240931,0 0.499072,0.0602 0.258141,0.0602 0.490468,0.20652 0.240932,0.13767 0.421631,0.37 0.189303,0.22372 0.27535,0.56791 l -1.023959,0.31837 q -0.06884,-0.23232 -0.266746,-0.33558 -0.189303,-0.11186 -0.395816,-0.11186 -0.223722,0 -0.413026,0.12907 -0.180699,0.12907 -0.180699,0.37 v 1.4714 q 0,0.24954 0.180699,0.37861 0.189304,0.12907 0.413026,0.12907 0.206513,0 0.404421,-0.11186 0.197908,-0.12046 0.283955,-0.37 l 1.049773,0.34419 q -0.120466,0.33558 -0.318374,0.56791 -0.189303,0.23232 -0.430235,0.3786 -0.232327,0.13768 -0.490468,0.19791 -0.258141,0.0688 -0.499072,0.0688 z"
                 style="font-size:8.60470009px;font-family:UniSansBold;font-variant-ligatures:normal;font-variant-caps:normal;font-variant-numeric:normal;font-feature-settings:normal;fill:#000000;stroke-width:0.21512"
                 id="path4623" />
              <path
                 d="m 68.844756,147.95275 q 0.318374,0 0.610934,0.10326 0.301164,0.10325 0.524886,0.30116 0.232327,0.19791 0.370003,0.49907 0.137675,0.30117 0.137675,0.69699 v 2.9428 h -1.187449 v -2.95141 q 0,-0.20651 -0.137675,-0.32698 -0.129071,-0.12046 -0.309769,-0.16349 -0.111861,-0.0172 -0.215118,-0.0172 -0.08605,0 -0.180698,0.0172 -0.197909,0.0258 -0.335584,0.10326 v 3.33862 h -1.196053 v -6.09212 h 1.196053 v 1.68652 q 0.172094,-0.0688 0.352793,-0.10326 0.189303,-0.0344 0.370002,-0.0344 z"
                 style="font-size:8.60470009px;font-family:UniSansBold;font-variant-ligatures:normal;font-variant-caps:normal;font-variant-numeric:normal;font-feature-settings:normal;fill:#000000;stroke-width:0.21512"
                 id="path4625" />
            </g>
            <g
               aria-label="Daemon"
               style="font-size:7.68310022px;line-height:1.25;font-variant-ligatures:normal;font-variant-caps:normal;font-variant-numeric:normal;font-feature-settings:normal;fill:#4c4c4c;stroke-width:0.19207001"
               id="text889">
              <path
                 d="m 38.616552,153.66683 q 0.399521,0 0.775993,0.10756 0.376472,0.0999 0.660746,0.31501 0.291958,0.21512 0.460986,0.55318 0.176712,0.33037 0.176712,0.79136 v 1.93614 q 0,0.46099 -0.176712,0.79136 -0.169028,0.32269 -0.460986,0.53782 -0.284274,0.20744 -0.660746,0.30732 -0.376472,0.0999 -0.775993,0.0999 h -1.997606 v -5.43963 z m 0,4.30253 q 0.184394,0 0.353422,-0.0307 0.169028,-0.0307 0.299641,-0.0999 0.130613,-0.0768 0.207444,-0.19208 0.07683,-0.11524 0.07683,-0.27659 v -1.93614 q 0,-0.16903 -0.07683,-0.28428 -0.07683,-0.12293 -0.207444,-0.19976 -0.130613,-0.0768 -0.299641,-0.10756 -0.169028,-0.0384 -0.353422,-0.0384 h -0.868191 v 3.16544 z"
                 style="font-size:7.68310022px;font-family:UniSansBold;font-variant-ligatures:normal;font-variant-caps:normal;font-variant-numeric:normal;font-feature-settings:normal;fill:#4c4c4c;stroke-width:0.19207001"
                 id="path4628" />
              <path
                 d="m 41.242011,157.92326 q 0,-0.34574 0.115247,-0.5916 0.122929,-0.24585 0.315007,-0.39952 0.19976,-0.16134 0.453303,-0.23049 0.261225,-0.0768 0.530134,-0.0768 0.353422,0 0.706845,0.12293 v -0.28428 q 0,-0.315 -0.184395,-0.43025 -0.184394,-0.12293 -0.430253,-0.12293 -0.22281,0 -0.460986,0.10756 -0.230493,0.10757 -0.376472,0.26123 l -0.522451,-0.56087 q 0.307324,-0.35342 0.660747,-0.50708 0.361105,-0.15366 0.775993,-0.16135 0.299641,0 0.576232,0.0845 0.284275,0.0845 0.499402,0.26122 0.22281,0.17671 0.353422,0.44562 0.138296,0.26123 0.138296,0.62233 v 2.42786 q -0.353422,0.13062 -0.745261,0.21513 -0.384155,0.0768 -0.752943,0.0768 -0.845141,0 -1.252346,-0.33805 -0.399521,-0.34574 -0.399521,-0.92198 z m 1.605768,-0.51476 q -0.307324,0 -0.453303,0.13829 -0.138296,0.13061 -0.138296,0.34574 0,0.21513 0.145979,0.34574 0.153662,0.12293 0.476352,0.12293 0.24586,0 0.453303,-0.0538 v -0.80673 q -0.0922,-0.0384 -0.22281,-0.0615 -0.130612,-0.0307 -0.261225,-0.0307 z"
                 style="font-size:7.68310022px;font-family:UniSansBold;font-variant-ligatures:normal;font-variant-caps:normal;font-variant-numeric:normal;font-feature-settings:normal;fill:#4c4c4c;stroke-width:0.19207001"
                 id="path4630" />
              <path
                 d="m 46.669161,159.18329 q -0.299641,0 -0.591599,-0.0845 -0.284274,-0.0922 -0.514767,-0.26891 -0.22281,-0.17671 -0.361106,-0.43794 -0.138296,-0.26891 -0.138296,-0.62233 v -1.31381 q 0,-0.3611 0.138296,-0.62233 0.145979,-0.26891 0.368789,-0.43794 0.230493,-0.17671 0.522451,-0.26122 0.291957,-0.0845 0.591598,-0.0845 0.291958,0 0.56855,0.0768 0.276591,0.0768 0.491718,0.24586 0.215127,0.16135 0.34574,0.42257 0.130612,0.25355 0.130612,0.61465 v 1.16783 h -2.08212 v 0.17671 q 0,0.2305 0.184395,0.35343 0.184394,0.11524 0.414887,0.11524 0.184394,0 0.353423,-0.0691 0.176711,-0.0768 0.268908,-0.2305 l 0.699162,0.50709 q -0.115246,0.21512 -0.284274,0.3611 -0.161346,0.1383 -0.353423,0.2305 -0.184394,0.0845 -0.384155,0.12293 -0.192078,0.0384 -0.368789,0.0384 z m 0.5455,-2.75823 q 0,-0.20745 -0.161345,-0.30733 -0.161345,-0.10756 -0.361106,-0.10756 -0.207443,0 -0.384155,0.10756 -0.169028,0.0999 -0.169028,0.31501 v 0.35342 h 1.075634 z"
                 style="font-size:7.68310022px;font-family:UniSansBold;font-variant-ligatures:normal;font-variant-caps:normal;font-variant-numeric:normal;font-feature-settings:normal;fill:#4c4c4c;stroke-width:0.19207001"
                 id="path4632" />
              <path
                 d="m 50.26005,155.04978 q 0.01537,0 0.03842,0 0.307324,0.008 0.606965,0.11525 0.299641,0.10756 0.460986,0.37647 0.192078,-0.23817 0.468669,-0.3611 0.276592,-0.13062 0.560867,-0.13062 0.276591,0 0.537817,0.0845 0.268908,0.0845 0.476352,0.25354 0.207444,0.16903 0.338056,0.42257 0.130613,0.25354 0.130613,0.5916 v 2.70445 h -1.060268 v -2.74287 q 0,-0.17671 -0.145979,-0.26122 -0.145979,-0.0922 -0.32269,-0.0922 -0.176711,0 -0.330373,0.0845 -0.145979,0.0845 -0.145979,0.26122 v 2.75055 h -1.021852 v -2.71982 q 0,-0.17671 -0.176712,-0.27659 -0.169028,-0.0999 -0.368789,-0.0999 -0.107563,0.008 -0.215126,0.0461 -0.09988,0.0307 -0.169029,0.10756 v 2.94263 h -1.044901 v -3.56496 q 0.261225,-0.22281 0.64538,-0.3611 0.361106,-0.13062 0.737578,-0.13062 z"
                 style="font-size:7.68310022px;font-family:UniSansBold;font-variant-ligatures:normal;font-variant-caps:normal;font-variant-numeric:normal;font-feature-settings:normal;fill:#4c4c4c;stroke-width:0.19207001"
                 id="path4634" />
              <path
                 d="m 54.577233,156.47116 q 0,-0.35343 0.138296,-0.61465 0.138296,-0.26891 0.361105,-0.44562 0.22281,-0.17671 0.507085,-0.26891 0.291958,-0.0922 0.591599,-0.0922 0.299641,0 0.583915,0.0922 0.284275,0.0922 0.507085,0.26891 0.22281,0.17671 0.361106,0.44562 0.138296,0.26122 0.138296,0.61465 v 1.29844 q 0,0.36111 -0.138296,0.63002 -0.138296,0.26122 -0.361106,0.43793 -0.22281,0.16903 -0.507085,0.26123 -0.284274,0.0845 -0.583915,0.0845 -0.299641,0 -0.591599,-0.0845 -0.284275,-0.0922 -0.507085,-0.26123 -0.222809,-0.17671 -0.361105,-0.43793 -0.138296,-0.26891 -0.138296,-0.63002 z m 1.598085,-0.46099 q -0.192078,0 -0.361106,0.0999 -0.169028,0.0999 -0.169028,0.29196 v 1.39064 q 0,0.19208 0.169028,0.31501 0.169028,0.11524 0.361106,0.11524 0.184394,0 0.353422,-0.11524 0.169029,-0.12293 0.169029,-0.31501 v -1.39064 q 0,-0.19208 -0.169029,-0.29196 -0.169028,-0.0999 -0.353422,-0.0999 z"
                 style="font-size:7.68310022px;font-family:UniSansBold;font-variant-ligatures:normal;font-variant-caps:normal;font-variant-numeric:normal;font-feature-settings:normal;fill:#4c4c4c;stroke-width:0.19207001"
                 id="path4636" />
              <path
                 d="m 59.910385,155.04978 q 0.338056,0 0.64538,0.0845 0.315007,0.0768 0.553183,0.25354 0.245859,0.16903 0.391838,0.44562 0.145979,0.27659 0.145979,0.66843 v 2.60457 h -1.060268 v -2.56615 q 0,-0.2766 -0.192077,-0.39953 -0.184394,-0.13061 -0.414887,-0.13061 -0.24586,0 -0.437937,0.10756 v 2.98873 h -1.067951 v -3.71094 q 0.330373,-0.16134 0.699162,-0.25354 0.368789,-0.0922 0.737578,-0.0922 z"
                 style="font-size:7.68310022px;font-family:UniSansBold;font-variant-ligatures:normal;font-variant-caps:normal;font-variant-numeric:normal;font-feature-settings:normal;fill:#4c4c4c;stroke-width:0.19207001"
                 id="path4638" />
            </g>
          </g>
        </g>
      </g>
    </g>
  </g>
</svg>
