<svg xmlns="http://www.w3.org/2000/svg" width="300" height="120" viewBox="0 0 79.4 31.8"><path d="M33.7 17.7l-29.6-.5v2.3c0 .5.3 1 1 1.4l6 3.7 6 3.7c1.3.8 3.6.7 4.8 0 1.2-.8.6-1.1 1.8-1.9 1.2-.7 1.8-.3 3-1l6-3.8c.7-.4 1-.9 1-1.4z" fill="#f4900c"/><path d="M32.7 16s-26.4-1.4-27.6-.6-1.4 2 0 2.9l6 3.7 6 3.7c1.3.8 3.6.7 4.8 0 1.2-.8.6-1.1 1.8-1.9 1.2-.7 1.8-.4 3-1l6-3.8c1.3-.8 1.3-2.1 0-3z" fill="#ffac33"/><path d="M12.1 21.2l6.2 3.7s1.2.8 2.5 0c1-.6 1.8-1.8 1.8-1.8z" fill="#ffd983"/><path d="M32.6 16C30.9 13.7 9.4 12 6 15.3c-.7.6-2 2-.6 3.9.6 1 1.8 1.6 2 1.3.4-.7 1.2-1.4 2.3-1.3l.5 2.8c-.8.7.9 3.1 2.8 1.8.5 1 3.5 3.4 5.5.1.4.8 4.7 1.9 5.9-1.5v.2c-.1.3.6.5 1.3.3 1.2-.4 3-1.5 3.2-2.6.9-.2 1.5 0 2 .7.3.3 1.1.4 1.5 0 .6-.8 1.7-3 .2-5z" fill="#77b255"/><path d="M30.2 21.6c0 .5-.8.8-1.7.8H9.3c-1 0-1.7-.3-1.7-.8v-5.7h22.6z" fill="#ffcc4d"/><path d="M32.2 17.2c0 2.4-4 4.4-8.9 4.4s-8.9-2-8.9-4.4c0-2.4 4-4.4 9-4.4 4.8 0 8.8 2 8.8 4.4z" fill="#be1931"/><path d="M33.7 12.4L4.1 12v2.3c0 .5.3 1 1 1.4l6 3.7 6 3.6c1.3.9 3.6.8 4.8 0 1.2-.7.6-1 1.8-1.8 1.2-.7 1.8-.4 3-1.1l6-3.7c.7-.4 1-1 1-1.4z" fill="#f4900c"/><path d="M32.7 10.9l-12-7.4a5 5 0 00-4.8 0l-6 3.7C8.7 7.9 9.3 8.3 8 9s-1.8.4-3 1.1c-1.2.8-1.4 2.2 0 3l12 7.3c1.3.8 3.6.8 4.8 0 1.2-.7.6-1 1.8-1.8 1.2-.7 1.8-.4 3-1.1l6-3.7c1.3-.8 1.3-2.1 0-3z" fill="#ffac33"/><path d="M31.8 11.6L19.5 4.3s-1.3-.7-2.4 0l-6 3.6C10 8.5 10 9 9 9.8c-1 .6-2 .5-3.1 1-1.2.8 0 1.5 0 1.5l12.3 7.4s1.2.7 2.5 0c1-.6.8-1.2 1.8-1.8 1-.7 2.1-.6 3.2-1.2l6-3.6s1.2-.8 0-1.5z" fill="#ffd983"/><g><g font-family="UniSansBold" letter-spacing="0" word-spacing="0" stroke-width=".2"><g aria-label="Sandwich" style="line-height:1.25;font-variant-ligatures:normal;font-variant-caps:normal;font-variant-numeric:normal;font-feature-settings:normal" font-size="8.6"><path d="M38.6 14.3q.4 0 .7-.2.3-.2.3-.6v-.3l-.4-.2-.4-.2h-.5l-.8-.3-.8-.4q-.3-.2-.5-.6-.2-.4-.2-1 0-.5.3-.9.2-.4.6-.6.3-.3.8-.4.4-.2 1-.2t1.2.3q.7.3 1.1 1l-1.2.8-.5-.5q-.3-.2-.7-.2h-.4l-.3.2q-.2 0-.3.2v.7l.3.2.4.1.5.1.8.3q.5.1.8.4.4.2.5.6.2.4.2 1t-.3 1l-.6.6-.8.4-1 .1q-.7 0-1.3-.3-.7-.3-1.1-1l1-.9q.3.4.7.6l.9.2zM41.7 14l.1-.7.4-.5.6-.3.7-.1 1 .2v-.4q0-.4-.3-.6l-.6-.1-.6.1-.5.4-.7-.8q.4-.4.9-.6l1-.2h.8l.6.4q.3.2.5.6l.1.8v3.1l-1 .3-.9.1q-1.1 0-1.6-.4-.5-.5-.5-1.2zm2-.6q-.4 0-.5.2l-.2.4q0 .3.2.5t.6.2l.6-.1v-1l-.3-.1h-.4zM48.6 10.4h.9l.7.4q.3.2.5.6.2.3.2.8v3.4h-1.4v-3.3q0-.4-.3-.5-.2-.2-.5-.2l-.6.1v4h-1.4v-4.9l1-.3 1-.1zM54 15.7H53l-.6-.4-.5-.5q-.2-.4-.2-.9v-1.8l.1-.7.5-.6.6-.3.7-.1.8.1v-2H56v6.8l-1 .3-1 .1zm0-4.2h-.3l-.4.2-.1.3v2l.1.4.4.2.3.1h.1l.4-.1v-3l-.4-.1H54zM59.4 15.6H58l-1.6-5.1H58l.6 2 .1 1.4.2-1.3.6-2.1h1l.7 2.1.1 1.3.2-1.4.6-2h1.4l-1.6 5.1h-1.3l-.4-1.8-.1-1.5-.2 1.5zM64.7 8.4l.6.2.2.6q0 .4-.2.6-.3.3-.6.3-.4 0-.6-.3-.3-.2-.3-.6 0-.3.3-.6.2-.2.6-.2zm.7 7.2H64v-5.1h1.4zM68.4 15.7h-.8l-.6-.4-.5-.6q-.2-.3-.2-.8v-1.7q0-.5.2-.8.2-.4.5-.6l.6-.3.8-.1h.6q.3 0 .5.3.3.1.5.4l.3.7-1.1.3-.4-.4-.4-.1q-.3 0-.5.2-.2.1-.2.4v1.7q0 .3.2.4.2.2.5.2l.5-.2q.2 0 .3-.4l1.2.4q-.1.4-.4.7l-.5.4q-.2.2-.5.2l-.6.1zM73.4 10.4h.7l.6.4.4.6.2.8v3.4h-1.4v-3.4l-.2-.4-.3-.2H73 73l-.4.2v3.8h-1.4v-7h1.4v2l.4-.2h.5z" style="font-variant-ligatures:normal;font-variant-caps:normal;font-variant-numeric:normal;font-feature-settings:normal"/></g><g aria-label="Daemon" style="line-height:1.25;font-variant-ligatures:normal;font-variant-caps:normal;font-variant-numeric:normal;font-feature-settings:normal" font-size="7.7" fill="#4c4c4c"><path d="M38.3 17l.9.1.8.4q.3.2.5.6.2.4.2 1v2.2q0 .5-.2.9t-.5.6l-.8.4H36V17zm0 5h.4l.3-.2q.2 0 .3-.2V19v-.3l-.3-.2-.3-.2h-1.4V22zM41.3 22q0-.5.2-.8l.3-.4.6-.3h1.4v-.3q0-.3-.2-.5l-.5-.1-.6.1-.4.3-.6-.6.8-.6q.4-.2.9-.2h.6l.6.4q.3.2.4.5.2.3.2.7V23l-.9.3h-.8q-1 0-1.5-.3-.5-.4-.5-1zm1.9-.7q-.4 0-.5.2-.2.1-.2.4l.2.4.5.1h.6v-1h-.6zM47.6 23.4l-.7-.1-.6-.3-.4-.5-.1-.8v-1.5l.1-.7.5-.5.6-.3.6-.1h.7l.6.4.4.4.1.8v1.3H47v.2q0 .3.2.4.2.2.5.2l.4-.1.3-.3.8.6q0 .3-.3.4l-.4.3-.4.1h-.5zm.7-3.2q0-.3-.2-.4l-.4-.1-.5.1q-.2.1-.2.4v.4h1.3zM51.8 18.6l.7.1q.4.1.6.5l.5-.5.7-.1h.6l.5.4q.3.2.4.5.2.3.2.7v3h-1.2v-3q0-.3-.2-.4l-.4-.1-.4.1-.1.3v3.2h-1.2V20q0-.2-.2-.3l-.5-.1h-.2l-.2.2v3.4h-1.2v-4.1l.7-.5.9-.1zM56.8 20.2q0-.4.2-.7.1-.3.4-.5l.6-.3.7-.1h.6l.6.4q.3.2.4.5.2.3.2.7v1.5q0 .5-.2.8-.1.3-.4.5l-.6.3H58l-.6-.3q-.3-.2-.4-.5-.2-.3-.2-.8zm1.9-.5l-.5.1q-.2.1-.2.4v1.6q0 .2.2.3.2.2.5.2l.4-.2q.2-.1.2-.3v-1.6q0-.3-.2-.4l-.4-.1zM63 18.6h.7l.7.4q.3.2.4.5.2.3.2.8v3h-1.2v-3q0-.3-.3-.4l-.4-.2-.5.1v3.5h-1.3V19l.8-.3.9-.1z" style="font-variant-ligatures:normal;font-variant-caps:normal;font-variant-numeric:normal;font-feature-settings:normal"/></g></g></g></svg>