<svg xmlns="http://www.w3.org/2000/svg" viewBox="0 0 33.87 33.87"><defs/><path fill="#f4900c" d="M32.8 18.84l-31.74-.48.01 2.45c.02.55.34 1.1 1.01 1.52l6.45 3.95 6.45 3.94c1.42.88 3.87.8 5.15 0 1.3-.79.65-1.18 1.94-1.97s1.93-.4 3.22-1.18l6.45-3.95c.71-.43 1.07-1 1.07-1.57z"/><path fill="#ffac33" d="M31.74 17.16S3.37 15.6 2.08 16.38c-1.29.78-1.42 2.28 0 3.15l6.45 3.95 6.45 3.94c1.42.88 3.87.8 5.15 0 1.3-.78.65-1.18 1.94-1.97s1.93-.4 3.22-1.18l6.45-3.95c1.42-.87 1.42-2.28 0-3.16z"/><path fill="#ffd983" d="M9.67 22.69l6.6 3.95s1.32.78 2.64 0c1.11-.67 1.97-1.98 1.97-1.98z"/><path fill="#77b255" d="M31.62 17.02C29.8 14.6 6.7 12.9 3.08 16.3c-.74.69-2.12 2.07-.65 4.15.65 1.08 1.98 1.79 2.16 1.45a2.56 2.56 0 012.47-1.4c-.07.16.6 2.99.53 3.05-.87.74.93 3.29 3.03 1.93.52 1.03 3.69 3.58 5.88.1.43.78 5 1.98 6.27-1.66-.01.07 0 .12-.03.19-.08.32.68.6 1.45.34 1.3-.46 3.17-1.58 3.5-2.82.92-.16 1.62.1 2.15.8.27.35 1.17.43 1.56-.02.68-.8 1.8-3.27.22-5.4z"/><path fill="#ffcc4d" d="M29.06 23.06c0 .5-.84.9-1.87.9H6.66c-1.03 0-1.87-.4-1.87-.9v-6.11h24.27z"/><path fill="#be1931" d="M31.22 18.35c0 2.58-4.28 4.67-9.56 4.67s-9.56-2.1-9.56-4.67c0-2.59 4.28-4.68 9.56-4.68s9.56 2.1 9.56 4.68z"/><path fill="#f4900c" d="M32.8 13.24l-31.74-.48v2.45h.01c.02.55.34 1.1 1.01 1.52l6.45 3.95 6.45 3.94c1.42.88 3.87.8 5.15 0 1.3-.79.65-1.18 1.94-1.97s1.93-.4 3.22-1.18l6.45-3.95c.71-.43 1.07-1 1.07-1.57z"/><path fill="#ffac33" d="M31.74 11.56l-12.9-7.89a5.41 5.41 0 00-5.15 0L7.24 7.62c-1.29.79-.64 1.18-1.93 1.97-1.3.79-1.94.4-3.23 1.19-1.29.78-1.42 2.28 0 3.15l12.9 7.9c1.42.87 3.87.78 5.15 0 1.3-.8.65-1.19 1.94-1.98s1.93-.4 3.22-1.18l6.45-3.95c1.42-.87 1.42-2.28 0-3.16z"/><path fill="#ffd983" d="M30.79 12.35l-13.2-7.89s-1.41-.74-2.65 0l-6.5 3.89C7.34 9 7.49 9.7 6.38 10.38c-1.12.67-2.19.52-3.3 1.18-1.32.8 0 1.58 0 1.58l13.2 7.9s1.31.78 2.63 0c1.12-.67.87-1.3 1.98-1.98 1.12-.67 2.29-.58 3.4-1.24l6.5-3.89s1.24-.84 0-1.58z"/></svg>